<svg xmlns="http://www.w3.org/2000/svg" class="icon" viewBox="0 0 4301 1024"><path fill="#83b81a" d="M4291.765 45.176c-15.06-20.078-30.118-35.137-105.412-40.156-20.078 0-80.314-5.02-185.726-5.02-276.078 0-466.823 85.333-562.196 250.98C3463.53 85.333 3302.902 0 2951.53 0c-411.607 0-672.627 165.647-778.039 501.96-40.157 125.491-40.157 225.883-10.039 306.197H2063.06c-75.294 5.02-175.686 10.04-240.941 10.04-150.589 0-245.961-25.099-281.098-75.295-30.118-45.177-30.118-130.51 10.039-256 65.255-205.804 220.863-296.157 471.843-296.157 130.51 0 256 15.059 256 15.059 15.059 0 25.098-20.079 25.098-35.137l-5.02-15.06-10.039-70.274c-5.02-45.176-40.157-70.274-100.392-80.313C2133.333 0 2088.157 0 2027.922 0h-5.02c-326.275 0-557.177 110.431-682.667 321.255C1385.412 105.412 1234.824 0 888.471 0 692.706 0 552.157 5.02 471.843 15.059c-65.255 10.039-105.412 35.137-120.47 80.314l-30.118 90.352c-5.02 15.06 5.02 25.099 25.098 25.099 15.059 0 75.294-10.04 175.686-15.06 135.53-10.039 230.902-15.058 296.157-15.058 190.745 0 276.079 50.196 245.96 145.569-5.019 20.078-20.078 35.137-45.176 40.156-180.705 30.118-326.274 50.196-431.686 65.255-301.176 40.157-476.863 130.51-522.04 281.098C0 918.588 160.628 1018.98 547.138 1018.98c190.745 0 356.392-10.039 486.902-35.137 75.294-15.059 115.451-30.118 130.51-80.314l70.275-230.902c-5.02 230.902 150.588 346.353 481.882 346.353 140.549 0 276.078-5.02 341.333-15.058s100.392-25.098 115.451-75.295l15.059-70.274C2258.824 968.784 2414.431 1024 2650.353 1024c250.98 0 396.549-5.02 436.706-20.078 35.137-10.04 55.216-30.118 65.255-55.216 0-5.02 0-10.04 5.02-15.059l30.117-95.372c5.02-15.06-5.02-25.099-25.098-25.099l-160.628 10.04c-105.411 5.02-190.745 10.039-250.98 10.039-115.45 0-190.745-10.04-235.921-25.098-65.255-25.098-95.373-70.275-90.353-145.569l506.98-65.255c225.882-30.117 381.49-100.392 456.784-210.823L3212.55 973.804c-5.02 10.04 0 20.078 5.02 25.098s15.058 10.04 35.137 10.04h210.823c35.138 0 50.196-20.08 55.216-35.138l185.726-647.53c25.098-85.333 100.392-125.49 240.94-125.49 125.491 0 215.844 0 276.08 5.02h5.019c10.039 0 30.117-5.02 45.176-30.118l30.118-90.353c0-15.058 0-30.117-10.04-40.157M908.549 818.196c-65.255 10.04-160.627 15.059-281.098 15.059-215.843 0-306.196-45.177-281.098-130.51C366.43 642.51 421.647 602.353 512 592.314l486.902-65.255zm2243.765-522.04q-30.118 97.884-286.118 135.53l-406.588 55.216 10.04-35.137c35.136-110.432 80.313-180.706 140.548-220.863s160.628-60.235 301.177-60.235c185.725 5.02 266.039 45.176 240.94 125.49" class="selected" data-spm-anchor-id="a313x.search_index.0.i52.57c13a81xA3evT"/></svg>
