<svg xmlns="http://www.w3.org/2000/svg" class="icon" viewBox="0 0 1024 1024"><path d="M673.742 163.486C712.135 120.151 738.065 59.94 731.011-.016c-55.333 2.08-122.327 34.233-162.063 77.52-35.592 38.408-66.706 99.595-58.388 158.463 61.747 4.48 124.742-29.226 163.182-72.48m138.532 380.625C810.898 414.394 925.914 352.2 931.08 349.064c-64.642-87.966-165.358-100.044-201.174-101.42-85.646-8.094-167.182 46.95-210.66 46.95-43.368 0-110.474-45.766-181.499-44.598-93.42 1.296-179.515 50.566-227.6 128.422-97.02 156.655-24.828 388.83 69.729 515.989 46.23 62.163 101.339 132.084 173.644 129.525 69.697-2.56 96.012-41.944 180.234-41.944 84.287 0 107.914 41.944 181.627 40.648 74.944-1.264 122.454-63.33 168.317-125.718 53.077-72.209 74.912-142.146 76.224-145.666-1.68-.752-146.146-52.277-147.65-207.14"/></svg>
