<svg xmlns="http://www.w3.org/2000/svg" class="icon" viewBox="0 0 1024 1024"><path fill="#014d98" d="M512 51.2c254.515 0 460.8 206.285 460.8 460.8S766.515 972.8 512 972.8 51.2 766.515 51.2 512 257.485 51.2 512 51.2" style="--darkreader-inline-fill:var(--darkreader-background-014d98, #014f9c)"/><path fill="#fff" d="M661.606 584.858h143.872c36.096-2.1 41.216-35.943 41.216-35.943.768-5.376.82-10.752.205-16.128-1.024-8.038-12.544-32.153-37.222-34.406-14.541-1.331-145.818-9.011-145.818-9.011a38.64 38.64 0 0 0 13.056 21.094 47.56 47.56 0 0 0 22.682 10.7l101.632 8.346c3.123 0 9.42.512 9.42 8.09-.05 2.253-.972 4.403-2.61 5.94a16.9 16.9 0 0 1-6.657 1.894H661.504zm-397.414-.41h188.109a43.83 43.83 0 0 0 36.198-35.891c.922-5.223 1.127-10.547.666-15.821-.973-5.888-12.288-31.949-36.915-34.355-14.644-1.383-145.204-11.469-145.204-11.469a40.22 40.22 0 0 0 12.34 23.091 51.8 51.8 0 0 0 23.5 11.11l100.557 8.244c3.072 0 8.96.973 8.807 8.55-.154 4.352-3.79 7.783-8.141 7.629h-140.8v-58.982l-39.066-2.816zm397.005-95.283-39.527-2.355v45.824s0 13.21-13.004 13.21h-67.994a12.605 12.605 0 0 1-11.52-12.954v-52.327l-39.834-2.867v70.451c2.97 19.047 18.125 33.895 37.223 36.352l3.84.256h91.699s39.27-3.123 39.27-40.448zm0-53.76H620.85v39.526h40.192zm-172.34 39.475h40.346v-39.526h-40.345zm358.81 0V435.2H703.744a43.94 43.94 0 0 0-32.256 15.974c-6.451 6.605-10.035 20.532-10.035 20.532v3.225zm-365.773 0V435.2H347.341c-12.493.512-24.167 6.298-32.103 15.974-6.604 6.605-10.188 20.634-10.188 20.634v-36.352h-71.476c-5.734 0-11.11 2.867-14.387 7.629-4.045 5.222-20.326 31.897-20.326 31.897zm-284.672 2.458L128 584.448h47.309l66.56-102.451zm674.356-23.092v-6.4h5.683c.665 0 1.382.103 1.997.41a2.79 2.79 0 0 1 1.33 2.662 2.97 2.97 0 0 1-.972 2.56 4.4 4.4 0 0 1-2.509.666zm-2.304 9.882h2.304v-7.629h5.324c.717-.051 1.434.051 2.048.307.82.512 1.28 1.485 1.23 2.458l.204 3.072v1.382c.102.103.205.256.256.41h2.97v-.358c-.359 0-.512-.564-.768-1.127a7.7 7.7 0 0 1 0-1.536v-2.457c0-.82-.154-1.588-.564-2.304a3.8 3.8 0 0 0-1.69-1.127 6.05 6.05 0 0 0 1.946-1.638c.461-.82.666-1.741.666-2.714a4.35 4.35 0 0 0-2.458-4.3 7.54 7.54 0 0 0-3.328-.615h-8.243v18.176zm6.144 6.81c9.318.46 17.203-6.759 17.664-16.026a16.88 16.88 0 0 0-16.026-17.664h-1.587a16.845 16.845 0 0 0-16.026 17.664c.359 8.704 7.322 15.616 15.975 16.026m-.103-32.308c8.55-.41 15.821 6.144 16.23 14.695s-6.143 15.82-14.694 16.23a7.7 7.7 0 0 1-1.536 0 15.47 15.47 0 0 1-14.694-16.23 15.52 15.52 0 0 1 14.694-14.695" style="--darkreader-inline-fill:var(--darkreader-background-ffffff, #1a1d1e)"/></svg>
