<svg xmlns="http://www.w3.org/2000/svg" class="icon" viewBox="0 0 2618 1024"><path fill="#1a1311" d="M190.33 683.31h25.516c9.358 0 20.53 1.05 20.53 13.43a18.256 18.256 0 0 1-20.43 19.02h-32.784zm-36.285 52.627h63.144c23.686 0 45.207-13.06 45.207-38.677a23.45 23.45 0 0 0-17.542-23.93v-.453a26.13 26.13 0 0 0 22.116-27.455c0-22.368-14.764-27.564-38.282-27.564h-49.731zm45.702-97.784h27.438c8.536 0 13.757 3.056 13.757 11.953a15.78 15.78 0 0 1-17.492 15.578h-29.536zm151.921 60.735a83 83 0 0 0 1.192-13.328c0-24.786-16.082-37.469-39.768-37.469-29.1 0-47.095 25.533-47.095 52.77 0 24.442 15.049 37.41 37.896 37.41 24.744 0 36.931-10.24 44.435-29.378h-23.502a20.35 20.35 0 0 1-17.576 11.684c-12.8 0-18.767-6.79-18.767-16.56 0-1.419 0-2.946.193-5.095zm-60.659-14.856a24.04 24.04 0 0 1 23.359-18.155c13.774 0 15.906 9.451 15.906 18.155zm107.285-59.476h-23.653l-5.304 25.902h-15.109l-3.508 15.788h15.352l-9.56 45.635a39.5 39.5 0 0 0-1.15 8.176c-.286 13.782 11.457 17.366 22.368 17.366 4.952 0 9.77-.353 14.697-.84l3.911-18.213a82 82 0 0 1-8.3.545c-3.602 0-8.033-.252-8.033-6.278a32 32 0 0 1 .646-3.995l8.763-42.43h16.703l3.668-15.787h-16.93zm59.4 0h-23.392l-5.372 25.902h-14.999l-3.61 15.788h15.285l-9.518 45.635a46.5 46.5 0 0 0-1.209 8.176c-.36 13.782 11.525 17.366 22.386 17.366 4.927 0 9.87-.353 14.63-.84l3.978-18.213a77 77 0 0 1-8.393.545c-3.467 0-7.949-.252-7.949-6.278a19 19 0 0 1 .764-3.995l8.72-42.43h16.62l3.751-15.787h-16.92zm87.292 74.324a59.5 59.5 0 0 0 1.503-13.329c0-24.786-16.049-37.468-39.903-37.468-29.075 0-47.246 25.533-47.246 52.77 0 24.441 15.25 37.409 38.106 37.409 24.61 0 36.839-10.24 44.3-29.377h-23.392a20.49 20.49 0 0 1-17.626 11.684c-12.809 0-18.743-6.79-18.743-16.56 0-1.42 0-2.947.076-5.095zm-60.533-14.856a24.064 24.064 0 0 1 23.501-18.155c13.64 0 15.713 9.45 15.713 18.155zm54.666 51.905h23.502l7.915-37.888c3.114-14.496 9.703-28.11 27.59-28.11a46.7 46.7 0 0 1 10.012 1.536l4.818-22.83a59 59 0 0 0-7.277-.563 31.215 31.215 0 0 0-29.377 18.172l-.403-.386 3.576-15.41h-22.352zm175.75-60.433c.429-22.041-16.25-27.422-34.983-27.422-16.51 0-38.023 7.017-38.023 27.237 0 13.354 6.933 17.937 18.617 21.882l18.004 5.682c5.12 1.679 8.528 3.467 8.528 9.359 0 7.814-7.773 10.299-14.924 10.299-8.108 0-16.921-3.836-16.921-11.516v-2.812h-21.781v3.467c0 19.993 19.59 26.582 36.344 26.582 19.808 0 40.741-7.974 40.741-29.109 0-14.395-9.854-20.312-22.553-24.416l-11.675-3.845c-7.965-2.459-10.719-4.767-10.719-8.586 0-6.06 5.993-8.469 14.362-8.469 8.754 0 12.968 4.373 13.228 11.658zm-.839 25.894c0 24.45 15.452 36.872 39.156 36.872 31.14 0 49.848-23.88 49.848-53.911 0-24.601-16.409-36.268-39.768-36.268-30.435 0-49.185 24.366-49.185 53.315zm23.552 0c0-14.479 7.554-35.53 24.736-35.53 12.313 0 17.265 7.454 17.265 18.869 0 14.403-7.554 35.798-25.264 35.798a17.28 17.28 0 0 1-16.686-19.129zm159.904-50.932h-23.594l-9.359 45.442c-2.72 11.877-9.82 23.888-24.207 23.888-5.422 0-11.222-3.508-11.222-8.763a53.5 53.5 0 0 1 1.52-10.408l10.374-50.159h-23.56l-10.392 50.16a85.5 85.5 0 0 0-2.518 14.696c0 14.89 8.805 22.948 25.046 22.948a37.25 37.25 0 0 0 29.931-14.269h.252l-2.669 11.919h22.52zm-11.214 85.47h23.586l9.702-45.441c2.367-11.877 9.61-23.855 23.855-23.855 5.514 0 11.314 3.777 11.314 8.864a51 51 0 0 1-1.486 10.307l-10.366 50.126h23.326l10.668-50.126a89.7 89.7 0 0 0 2.45-14.689c0-14.84-8.737-23.04-24.86-23.04a36.7 36.7 0 0 0-30.024 14.345h-.386l2.761-11.97H904.26zm149.403 0h22.663l24.995-118.078h-23.443l-9.35 44.007h-.394a24.56 24.56 0 0 0-23.913-13.783c-31.593 0-46.785 28.446-46.785 56.497a30.728 30.728 0 0 0 32.591 33.691 28.4 28.4 0 0 0 25.768-13.127l.361.226zm-7.075-70.06c11.49 0 16.87 7.555 16.87 18.466 0 14.79-8.234 36.184-25.793 36.184a16.988 16.988 0 0 1-16.787-19.02c.126-14.99 8.058-35.63 25.81-35.63zm130.937-41.312h-23.266l-5.288 25.902h-15.108l-3.71 15.788h15.36l-9.586 45.635a39.2 39.2 0 0 0-1.191 8.176c-.26 13.782 11.54 17.366 22.351 17.366 5.036 0 10.014-.353 14.823-.84l3.979-18.213a85 85 0 0 1-8.595.545c-3.358 0-7.873-.252-7.873-6.278a26 26 0 0 1 .713-3.995l8.788-42.43h16.636l3.685-15.787h-16.905zm-.352 111.373h23.602l9.485-45.442c2.518-11.877 9.736-23.855 24.013-23.855 5.548 0 11.281 3.777 11.281 8.864a68.6 68.6 0 0 1-1.544 10.307l-10.4 50.126h23.636l10.475-50.126a90 90 0 0 0 2.35-14.689c0-14.84-8.762-23.04-24.895-23.04a35.18 35.18 0 0 0-28.344 12.297h-.202l8.67-42.521h-23.434zm87.87 0h23.553l7.864-37.888c3.064-14.496 9.544-28.11 27.699-28.11a44.7 44.7 0 0 1 9.87 1.536l4.827-22.83a56 56 0 0 0-7.286-.563 31.15 31.15 0 0 0-29.377 18.172l-.436-.386 3.517-15.41h-22.302zm62.952-34.54c0 24.45 15.595 36.873 39.365 36.873 31.056 0 49.748-23.88 49.748-53.911 0-24.601-16.41-36.268-39.945-36.268-30.325 0-49.085 24.366-49.085 53.315zm23.594 0c0-14.478 7.503-35.529 24.794-35.529 12.195 0 17.156 7.454 17.156 18.869 0 14.403-7.688 35.798-25.105 35.798a17.29 17.29 0 0 1-16.762-19.129zm158.308-50.93h-23.501l-9.485 45.441c-2.67 11.877-9.938 23.888-24.19 23.888-5.372 0-11.188-3.508-11.188-8.763a58 58 0 0 1 1.552-10.408l10.249-50.159h-23.35l-10.61 50.16a115 115 0 0 0-2.359 14.696c0 14.89 8.73 22.948 24.803 22.948a36.99 36.99 0 0 0 30.09-14.269h.27l-2.594 11.919h22.57zm42.924 15.41a16.308 16.308 0 0 1 16.838 18.465c0 14.53-8.234 32.525-25.013 32.525-10.911 0-16.099-8.662-16.099-18.835.06-13.665 8.503-32.155 24.358-32.155zm47.13-15.41h-22.445l-2.652 13.127h-.235a25.84 25.84 0 0 0-26.18-15.512c-27.454 0-43.276 26.767-43.276 51.754 0 20.984 12.59 34.791 33.02 34.791a28.29 28.29 0 0 0 23.46-12.095l.252.328c-4.516 16.736-8.931 29.796-23.712 29.796-7.621 0-15.771-3.609-15.46-12.27h-23.494c0 20.605 19.196 28.016 36.579 28.016 28.344 0 41.472-10.911 47.221-36.93zm-11.751 85.47h23.501l9.51-45.442c2.636-11.877 9.88-23.855 24.09-23.855 5.421 0 11.196 3.777 11.196 8.864a53.3 53.3 0 0 1-1.402 10.307l-10.441 50.126h23.502l10.567-50.126a97.6 97.6 0 0 0 2.4-14.689c0-14.84-8.628-23.04-24.894-23.04a34.82 34.82 0 0 0-28.295 12.297h-.285l8.662-42.521h-23.36zm130.467 0h23.603l7.915-37.888c3.114-14.496 9.493-28.11 27.53-28.11a44.6 44.6 0 0 1 9.854 1.536l4.96-22.83a61 61 0 0 0-7.36-.563 31.3 31.3 0 0 0-29.377 18.172l-.328-.386 3.358-15.41h-22.251zm148.707-37.049a65.5 65.5 0 0 0 1.351-13.329c0-24.786-16.115-37.468-39.734-37.468-29.134 0-47.306 25.533-47.306 52.77 0 24.441 15.159 37.409 38.157 37.409 24.61 0 36.788-10.24 44.3-29.377h-23.468a20.14 20.14 0 0 1-17.458 11.684c-12.708 0-18.97-6.79-18.97-16.56a39 39 0 0 1 .261-5.095zm-60.433-14.856a23.96 23.96 0 0 1 23.225-18.155c13.69 0 15.947 9.45 15.947 18.155zm139.835-8.528c.26-22.041-16.342-27.422-34.976-27.422-16.669 0-37.955 7.017-37.955 27.237 0 13.354 6.799 17.937 18.575 21.882l18.046 5.682c5.036 1.679 8.326 3.467 8.326 9.359 0 7.814-7.671 10.299-14.823 10.299-8.049 0-16.904-3.836-16.904-11.516v-2.812h-21.781v3.467c0 19.993 19.565 26.582 36.335 26.582 19.674 0 40.708-7.974 40.708-29.109 0-14.395-9.87-20.312-22.469-24.416l-11.75-3.845c-8.067-2.459-10.862-4.767-10.862-8.586 0-6.06 6.17-8.469 14.512-8.469 8.856 0 12.926 4.373 13.262 11.658zm86.528 23.384a82.6 82.6 0 0 0 1.351-13.329c0-24.786-16.073-37.468-39.927-37.468-29.075 0-47.113 25.533-47.113 52.77 0 24.441 15.234 37.409 38.065 37.409 24.584 0 36.93-10.24 44.334-29.377h-23.57a19.93 19.93 0 0 1-17.415 11.684c-12.809 0-18.961-6.79-18.961-16.56a24.3 24.3 0 0 1 .42-5.095zm-60.534-14.856a23.98 23.98 0 0 1 23.242-18.155c13.824 0 15.905 9.45 15.905 18.155zm117.232 19.195c-2.753 9.233-7.504 19.305-22.193 19.305-6.714 0-12.934-3.156-12.934-9.543 0-10.794 8.553-13.018 17.576-13.858a44 44 0 0 0 19.691-4.255zm-25.432-26.7a16.03 16.03 0 0 1 17.332-12.69c5.917 0 14.865 2.031 14.865 10.458 0 10.912-10.375 9.737-32.407 12.38-20.506 2.519-32.802 12.708-32.802 29.05 0 11.919 9.149 22.537 27.782 22.537a35 35 0 0 0 26.079-10.719v8.394h23.501a17.2 17.2 0 0 1-.914-5.036 49.7 49.7 0 0 1 1.3-11.508l7.48-34.363a93 93 0 0 0 1.896-14.378c.353-19.204-20.354-22.553-35.597-22.553-19.304 0-37.577 6.95-40.557 28.446zm49.52 59.401h23.502l7.966-37.888c3.114-14.495 9.644-28.11 27.539-28.11a45.3 45.3 0 0 1 10.013 1.537l4.784-22.83a56 56 0 0 0-7.285-.563 31.38 31.38 0 0 0-29.444 18.172l-.361-.386 3.5-15.41h-22.352zm149.757-55.934c-.554-22.603-17.576-31.895-38.426-31.895-30.77 0-48.396 24.341-48.396 53.441 0 25.046 14.269 36.747 38.09 36.747a44.41 44.41 0 0 0 44.2-33.507h-23.502a19.91 19.91 0 0 1-18.995 15.78c-11.835 0-16.283-8.293-16.283-18.516 0-14.621 6.228-36.15 24.022-36.15 10.282 0 15.78 4.07 15.78 14.134zm-6.715 55.934h23.552l9.67-45.442c2.383-11.877 9.77-23.854 23.845-23.854 5.54 0 11.222 3.777 11.222 8.863a55 55 0 0 1-1.377 10.308l-10.466 50.125h23.501l10.593-50.125a99 99 0 0 0 2.518-14.689c0-14.84-8.788-23.04-25.08-23.04a34.41 34.41 0 0 0-28.176 12.296h-.328l8.822-42.52h-23.452zm150.763-342.419a37.384 37.384 0 1 0 37.468-37.41 37.42 37.42 0 0 0-37.468 37.41m6.824 0a30.653 30.653 0 1 1 30.644 30.746 30.62 30.62 0 0 1-30.644-30.746"/><path fill="#1a1311" d="M2413.534 411.841h7.378v-14.143h7.705c5.523 0 5.784 1.964 5.784 6.891a22.8 22.8 0 0 0 .839 7.252h8.335v-.84c-1.62-.578-1.62-1.963-1.62-7.251 0-6.715-1.57-7.907-4.592-9.233a8.61 8.61 0 0 0 5.565-8.687 10.072 10.072 0 0 0-11.28-10.215h-18.114zm7.378-20.287v-9.678h9.3a4.616 4.616 0 0 1 5.288 4.768c0 3.668-2.065 4.944-5.75 4.944z"/><path fill="#1a1311" d="m1904.556 297.967-157.738 287.056h386.887l25.399-45.51h-218.322l40.39-72.955h218.355l25.793-47.507h-218.23l40.8-74.14h415.527v-47.003zm-382.262 0a91.93 91.93 0 0 0-78.613 42.807l-43.915 78.277c-24.878 47.507 22.713 47.507 22.713 47.507h161.49c6.102 0 2.518 6.715 2.518 6.715l-27.439 49.781a24.39 24.39 0 0 1-20.211 11.298h-14.924c-14.999-1.058-9.409-12.313-9.409-12.313l8.948-15.629h-171.403l-22.26 40.38c-19.975 38.258 28.9 38.258 28.9 38.258h292.091c45.325 0 68.717-42.974 68.717-42.974l43.865-79.579c23.954-43.419-26.356-43.419-26.356-43.419h-165.989l27.825-49.706a35.25 35.25 0 0 1 28.386-20.706h13.06c14.966 0 8.822 9.803 8.822 9.803l-12.447 22.805h171.805l23.627-44.947c22.319-38.366-24.777-38.366-24.777-38.366zm-311.38 50.722c20.144 0 13.328 11.944 13.328 11.944l-88.895 162.455a35.4 35.4 0 0 1-29.444 16.476h-22.31c-24.34 0-17.542-13.967-17.542-13.967l88.828-160.935a27.93 27.93 0 0 1 21.823-15.948zm-128.353-50.722c-52.148 0-80.04 50.705-80.04 50.705L898.938 537.474c-25.91 47.608 21.202 47.608 21.202 47.608h292.318c48.564 0 74.886-47.608 74.886-47.608l104.079-188.777c27.917-50.705-20.74-50.705-20.74-50.705zM773.23 585.082s51.258 0 71.427-38.258l35.572-63.664c12.993-23.233-8.662-42.437-8.662-42.437a81.73 81.73 0 0 0 49.127-31.56l40.288-73.442c13.606-37.729-37.233-37.729-37.233-37.729H594.306l-133.078 241.58H156.546v45.51zm-141.246-45.51 38.35-71.344h78.017c20.237 1.083 9.283 20.648 9.283 20.648l-19.557 35.706a30.15 30.15 0 0 1-24.895 15.007zm183.162-190.875c18.18 2.006 10.76 19.624 10.76 19.624l-18.029 34.229a43.75 43.75 0 0 1-30.426 15.947h-78.689l37.771-69.766zM2341.628 705.25a37.334 37.334 0 1 0 37.267-37.3 37.36 37.36 0 0 0-37.267 37.3m6.471 0a30.754 30.754 0 1 1 30.787 30.771 30.87 30.87 0 0 1-30.787-30.77"/><path fill="#1a1311" d="M2365.096 723.767h7.319v-14.27h7.806c5.514 0 5.875 1.965 5.875 6.934a27 27 0 0 0 .764 7.319h8.394v-1.15c-1.68-.37-1.68-1.78-1.68-7.05 0-6.892-1.61-7.882-4.666-9.233a8.57 8.57 0 0 0 5.632-8.73 10.072 10.072 0 0 0-11.28-10.13h-18.114zm7.319-20.43v-9.686h9.443c4.33 0 5.145 2.812 5.145 4.759 0 3.6-1.847 4.927-5.75 4.927z"/></svg>
