<svg xmlns="http://www.w3.org/2000/svg" class="icon" viewBox="0 0 4539 1024"><path fill="#0d2ea0" d="M414.037 1020.245a406.53 406.53 0 0 0 409.6-326.656v307.2h196.95V618.155c0-17.408 0-36.864 1.706-54.614 3.755-116.736 80.214-186.368 201.387-188.074a419.499 419.499 0 1 0 764.928 307.2c0 202.752 161.792 341.333 357.035 341.333a289.1 289.1 0 0 0 210.261-92.843v70.656h195.925V559.445c4.779-133.802 82.944-191.829 170.667-191.829s159.061 58.368 161.792 191.147v441.685h199.339v-312.32a404.82 404.82 0 0 0 409.6 332.117c230.741 0 361.13-147.797 395.946-302.08h-192.512a212.31 212.31 0 0 1-204.8 139.264 224.6 224.6 0 0 1-221.184-192.17h638.976v335.53h196.95V563.541c4.096-118.442 82.602-188.416 207.189-188.416h25.941V187.392h-21.504c-260.778 0-399.701 146.09-405.162 335.53a416.77 416.77 0 0 0-418.134-341.333 409.6 409.6 0 0 0-409.6 338.944 333.483 333.483 0 0 0-326.314-338.602 290.48 290.48 0 0 0-204.8 84.65V2.731h-198.315v588.8a556 556 0 0 1-3.413 60.757c-11.947 122.197-94.208 182.613-183.979 182.613S2191.36 790.87 2188.629 652.63V381.611h307.2V196.608h-307.2V2.731h-200.021v518.826a419.84 419.84 0 0 0-737.621-183.978V187.392H1228.8c-256 0-394.24 141.312-404.139 324.608a395.264 395.264 0 0 0-387.754-324.608 332.8 332.8 0 0 0-245.078 99.67V0H0v602.112c2.39 229.717 163.499 418.133 412.672 418.133M3693.568 347.82a225.28 225.28 0 0 1 213.333 162.133H3481.6a222.55 222.55 0 0 1 212.31-162.133m-2116.267 24.917a225.963 225.963 0 0 1 229.034 229.376 229.376 229.376 0 1 1-458.41 0 226.304 226.304 0 0 1 229.376-229.376m-1162.923 0a225.963 225.963 0 0 1 229.035 229.376A226.304 226.304 0 0 1 414.72 831.488a229.376 229.376 0 0 1 0-458.752"/></svg>
