<svg xmlns="http://www.w3.org/2000/svg" class="icon" viewBox="0 0 4931 1024"><path fill="#cc2229" d="M388.718 728.705C467.673 858.156 612.476 945.01 773.633 945.01c238.118 0 369.198-205.494 369.198-205.494l16.872 54.738C1049.463 937.63 852.523 1024 632.187 1024c-253.679 0-472.459-121.016-573.126-295.532C21.158 662.738 0 589.316 0 511.991 0 229.218 283.01 0 632.178 0c246.709 0 445.34 105.672 549.612 258.812L767.836 506.695l236.243-362.756c-67.587-42.507-150.51-82.312-236.243-82.312-242.358 0-441.973 202.245-441.973 444.594 0 81.202 23.06 157.499 62.855 222.484m1108.396-.146a167.5 167.5 0 0 0-1.856 24.98c0 91.995 74.586 166.59 166.59 166.59s166.58-74.586 166.58-166.59a168 168 0 0 0-1.865-25.07c-12.049-80.056-81.202-141.51-164.724-141.51-83.514 0-152.676 61.454-164.725 141.6m618.137-.09 82.794 278.887H1907.62l-57.104-190.97c-38.24 110.04-167.29 190.97-320.594 190.97-183.425 0-332.106-115.847-332.106-258.776 0-6.689.328-13.332.965-20.112 13.05-133.4 156.316-238.664 331.141-238.664 99.23 0 188.294 33.908 249.148 87.663l-79.11-264.49h-333.324s55.457-33.262 301.392-122.745c245.935-89.474 323.87 122.745 323.87 122.745zm928.565 0v278.887h-298.835v-612.74a81.64 81.64 0 0 0-81.638-81.64 81.64 81.64 0 0 0-76.088 52v642.38h-293.293v-694.38h-171.048S2360.868 168.82 2443.38 168.82c78.199 0 136.076 60.08 143.311 136.614 115.082-62.073 229.2-136.614 307.717-136.614 81.12 0 147.152 64.649 149.408 145.25zm460.356 0 41.589 137.46c.8 58.914 49.214 106.045 108.639 106.045 60.753 0 109.986-49.233 109.986-109.977 0-4.305-.246-8.536-.728-12.704l-35.355-120.825-124.155-424.318c-6.115-54.984-52.718-97.728-109.33-97.728-56.04 0-109.468 52.363-116.293 106.546zm475.581.054C3923.158 900.127 3761.528 1024 3570.95 1024c-190.587 0-352.226-123.864-408.839-295.532a429.5 429.5 0 0 1-21.559-134.838c0-237.69 192.69-430.362 430.398-430.362 237.69 0 430.38 192.671 430.38 430.362 0 47.112-7.572 92.467-21.577 134.893m494.791-.055v278.888h-293.302v-694.38h-164.014s230.92-144.157 313.44-144.157c78.209 0 136.077 60.08 143.33 136.614 115.083-62.073 229.182-136.614 307.7-136.614 81.137 0 147.169 64.649 149.407 145.25v693.287H4632.27v-612.74a81.64 81.64 0 0 0-81.638-81.64 81.64 81.64 0 0 0-76.088 52z"/></svg>
