<svg xmlns="http://www.w3.org/2000/svg" class="icon" viewBox="0 0 1024 1024"><path fill="#231815" d="m378.778 613.786 1.74.204 1.946.41 1.434.717 1.74.614 1.23.922 1.535 1.126 1.127 1.127 1.536 1.74 1.126 1.946.922 2.458.921 2.662-8.601 2.458-.41-1.741-.82-1.536-.92-1.639-1.025-1.126-1.331-.82-1.331-.716-1.434-.41-1.74-.204-1.127.204h-1.126l-1.127.512-1.024.308-.921.512-.922.614-.717.717-.819 1.126-.922 1.331-.716 1.23-.615 1.535-.512 1.843-.41 1.536-.307 1.741-.204 1.843v3.38l.204 1.843.308 1.638.41 1.741.511 1.536.615 1.331.716 1.434 1.024 1.229.717.921.717.82.922.716 1.024.41.921.41.922.409 1.126.205h1.127l1.638-.205 1.536-.41 1.536-.716 1.331-1.024 1.024-1.536.922-1.844.819-1.945.717-2.458 8.294 2.867-.41 1.946-.716 1.843-.615 1.536-.716 1.536-1.024 1.536-.82 1.127-.921 1.024-1.229 1.228-1.024.82-1.331.921-1.331.717-1.332.41-1.433.41-1.536.306-1.434.103h-3.993l-1.946-.103-1.843-.716-1.843-.717-1.741-.82-1.639-1.126-1.536-1.433-1.33-1.434-1.23-1.843-1.126-1.946-1.024-2.253-.922-2.15-.512-2.458-.41-2.662-.409-2.355v-2.663l.205-2.457.205-2.663.41-2.457.716-2.458.717-2.15 1.024-2.253 1.126-1.946 1.23-1.74 1.535-1.536 1.434-1.332 1.74-1.126 1.639-1.126 1.946-.615 2.048-.512 2.048-.41zm147.968 19.968v-2.458l-.717-2.56-.82-2.15-1.33-1.946-1.127-1.843-1.126-1.741-1.434-1.74-1.536-1.332-1.638-1.331-1.741-.922-1.946-.819-2.048-.717h-9.011l-1.946.717-1.945.614-1.331.922-1.127.922-1.331 1.024-.922 1.126-1.024 1.331-1.024 1.331-.716 1.536-.922 1.639-1.331 3.277-.922 3.481v14.131l.717 2.253.717 2.15 1.024 2.049 1.024 1.74 1.331 1.844 1.331 1.433 1.536 1.639 1.639 1.024 1.945 1.126 3.687 1.229h8.704l1.945-.717 1.946-.614 1.74-1.127 1.639-1.229 1.536-1.433 1.434-1.536 1.126-1.741 1.126-1.946.922-2.048.82-2.15.716-2.253v-10.035zm-8.09 7.68-.614 3.072v1.33l-.615 1.332v1.331l-.819 1.331-.717 1.024-.717 1.127-1.024.921-1.024.717-1.126.512h-8.09l-2.15-.512-.922-.717-1.024-.921-.819-1.127-.717-1.024-.819-1.126-.614-1.331-.512-1.331v-15.053l.614-1.229v-1.331l.512-1.127 1.024-1.126 1.229-1.536.922-.922 1.126-.614 1.126-.717h8.295l1.126.717 1.024.614 1.024.922.717.922 1.024 1.126.512 1.331v1.024l.614 1.434v1.433l.615 2.868v3.174zm82.944-7.68v-2.458l-.614-2.56-.922-2.15-1.229-1.946-1.126-1.843-1.127-1.741-1.536-1.74-1.126-1.332-1.638-1.331-1.741-.922-1.843-.819-2.56-.512h-8.704l-4.199 1.331-1.126.922-1.331.921-1.024 1.024-1.23 1.127-1.023 1.331-1.024 1.331-.717 1.536-.717 1.639-1.331 3.276-1.126 3.482v11.776l.614 2.355v2.253l.717 2.15 1.024 2.048 1.126 1.741 1.331 1.843 1.332 1.434 1.433 1.638 1.741 1.024 1.843 1.127 1.843.614 2.048.615h8.5l2.048-.717 1.843-.615 1.843-1.126 1.536-1.229 1.74-1.433 1.23-1.536 1.33-1.741 1.946-3.994.922-2.15.614-2.253v-10.035zm-8.09 7.68-.512 3.072v2.662l-.614 1.331v1.331l-.922 1.024-.716 1.127-1.024.921-1.127.717-1.126.512h-1.331l-2.458 1.229h-5.427l-1.127-.614-1.126-.717-.922-.922-1.638-2.253-.717-1.024-.819-1.126-.614-1.331v-2.867l-.512-2.868v-6.246l.512-3.072v-1.331l.614-1.229v-1.331l.82-1.127.716-1.126.717-1.126 1.126-.922.922-.614 1.126-.717h8.295l2.252 1.331.922.922.922.921.819 1.127v1.33l.614 1.025v2.867l2.765 2.56v3.174zm36.66-27.648 1.638.204 1.536.205 1.434.512 1.536.41 1.33.614 1.127.922 1.127.921.921.82 1.024 1.126.615 1.024.819 1.434.614 1.33.512 1.332.41 1.536.41 1.74-6.861 1.537-.512-1.741-.82-1.536-.921-1.331-1.024-1.127-1.536-.921-1.536-.615-1.639-.41h-3.379l-1.126.206-1.331.41-1.127.409-1.126.717-.922.614-1.024.922-.717.921-.921 1.331-.615 1.332-.512 1.33-.41 1.434-.306 1.844-.205 1.536-.205 1.74v3.79l.205 1.74.205 1.536.307 1.74.41 1.64.511 1.33.82 1.332.716 1.228.717.922 1.024.922.922.614 1.126.717 1.127.41 1.33.511 1.127.103h1.229l2.15-.205 1.639-.205 1.536-.205 1.433-.41 1.127-.716 1.126-.614 1.024-.922 1.127-.922v-5.939h-10.957v-8.09h17.305v26.01h-6.348v-2.867l-2.56 1.331-2.56 1.127-1.332.41-1.433.306-1.331.103h-1.332l-3.174-.103-2.765-.512-1.331-.512-1.434-.614-1.024-.614-1.126-.717-1.126-.82-1.127-1.023-1.024-.717-.921-1.127-.717-1.433-.717-1.024-.82-1.331-.511-1.536-1.229-2.868-.717-3.379-.307-2.97-.205-3.583.205-3.584.512-3.482.82-3.174 1.126-3.072.716-1.332.82-1.33.716-1.332 1.844-2.15 1.126-1.127 1.126-.921 1.332-.615 1.843-1.126 2.253-.922 2.662-.41zm-316.212.614v8.192H302.08v39.936h-8.09v-39.936h-11.673V614.4zm227.636.512v39.526h18.022v8.09h-26.214v-47.616zm115.61-.512 9.215 19.046 9.114-19.046h9.216l-14.439 28.16v19.968h-8.09v-20.275L647.783 614.4zm-305.972 0v8.192H329.83v10.65h19.968v8.192H329.83v13.004h22.221v8.09h-30.208V614.4zm58.778 0v19.046h18.227V614.4h7.885v48.128h-7.988v-20.89H410.01v20.89h-8.09V614.4zm42.803 0 18.739 32.358V614.4h7.475v48.128h-7.27l-18.432-31.232v31.232h-7.475V614.4z"/><path fill="#d71718" d="m227.02 360.755 7.68.205 7.374.307 7.27.82 7.066 1.33 7.27 1.332 6.656 1.74 6.554 2.151 6.348 2.458 6.247 2.867 6.041 3.072 5.837 3.379 5.427 3.789 5.018 4.096 5.12 4.505 4.506 4.71 4.3 5.12 3.892 5.428 1.843 2.97 1.945 3.174 1.741 3.277 1.639 2.97 1.33 3.174 1.434 3.379 1.127 3.174 1.126 3.38 1.024 3.379.922 3.379.717 3.38.819 3.378.41 3.584.409 3.38.205 3.584.41 3.481 30.617-95.437h60.62L386.15 526.95l-.921 2.663-1.127 2.765-2.252 5.222-1.332 2.662-1.536 2.356-1.228 2.457-1.741 2.56-1.536 2.355-1.639 2.253-1.843 2.253-1.843 2.355-1.946 1.843-2.048 2.15-2.048 2.049-2.048 1.843-2.252 1.946-2.356 1.843-2.15 1.638-2.56 1.536-2.458 1.639-2.355 1.536-2.457 1.33-2.663 1.332-2.56 1.331-2.662 1.024-2.765 1.127-2.662 1.024-2.765.921-2.867.717-2.97.614-2.867.512-3.891.717-4.199.41-3.891.205h-9.728l-2.867-.308-2.867-.41-2.56-.409-2.458-.307-2.458-.41-2.457-.614 5.325-4.506 4.915-4.505 4.608-4.71 4.505-4.609 4.199-4.915 3.686-4.915 3.584-5.018 3.38-5.017 2.969-5.325 2.867-5.325 2.56-5.427 2.253-5.427 2.15-5.632 1.844-5.837 1.74-5.94 1.23-6.04 1.023-5.633.717-5.427.614-5.427.308-5.427.204-5.223-.204-5.325-.205-5.12-.512-5.017-1.024-4.915-.922-4.916-1.229-4.608-1.536-4.505-1.843-4.71-2.15-4.301-2.458-4.301-2.765-4.301-3.276-5.018-3.79-4.403-4.198-4.198-4.096-3.891-4.71-3.687-4.71-3.481-4.813-2.97-5.325-2.765-5.427-2.56-5.632-2.048-5.632-1.843-6.042-1.843-5.939-1.331-6.246-1.024-6.35-.82-6.45-.41-6.452-.102h-6.656l-6.758.41-6.656.717-6.963 1.126-6.759 1.127-6.963 1.638-6.963 1.843-6.86 2.355-7.066 2.356-6.964 2.867-6.758 2.97-6.86 3.379-6.76 3.788-6.86 3.994-6.451 4.3-6.451 4.506-6.247 4.71-5.939 4.814-5.632 5.017-5.427 5.223-5.223 5.53-4.915 5.426-4.71 5.632-4.301 5.632-3.891 5.837-3.994 5.837-3.379 6.042-3.174 5.939-2.97 6.041-2.56 6.247-2.355 5.837-1.946 6.246-1.638 6.246-1.331 6.144-1.127 6.042-.717 6.246-.41 5.94v6.041l.41 6.042.512 5.837 1.024 5.734 1.332 5.632 1.638 5.632 2.048 5.427 2.458 5.325 2.56 5.222 3.276 4.916 3.175 4.403 3.481 4.198 3.584 3.994 3.994 3.686 4.096 3.584 4.608 3.175 4.403 2.867 4.71 2.765 4.916 2.355 5.017 2.355 5.325 1.843 5.427 1.946 5.428 1.433 5.632 1.23 5.632.818 5.939.82 5.837.512 6.246.204h6.042l6.144-.41 6.45-.306 6.145-.922 6.349-1.024 6.45-1.229 6.35-1.536 6.45-1.843 6.247-2.15 6.554-2.253 6.451-2.56 6.349-2.867 6.246-2.97 6.349-3.38v12.084l-7.475 4.3-7.578 3.892-7.475 3.789-7.475 3.174-7.68 3.175-7.783 2.662-7.475 2.355-7.68 2.15-7.68 1.844-7.475 1.331-7.578 1.331-7.372.717-7.578.512-7.373.307h-7.065l-7.168-.41-7.168-.614-6.759-1.126-6.758-1.331-6.554-1.434-6.451-1.946-6.349-2.252-5.939-2.458-5.837-2.765-5.632-3.174-5.53-3.38-4.915-3.788-4.915-3.891-4.71-4.404-4.301-4.608-4.096-4.915-3.789-5.222-3.584-5.632-3.174-5.837-2.56-6.246-2.56-5.94-1.843-6.348-1.332-6.656-1.024-6.554-.819-6.758-.205-6.759.205-6.758.41-6.963.921-7.168 1.332-6.861 1.433-7.168 2.15-7.168 2.356-6.963 2.662-7.066 3.175-6.963 3.379-7.066 3.789-6.963 4.096-6.758 4.3-6.964 4.916-6.553 5.12-6.656 5.222-6.554 5.837-6.349 5.939-6.246 6.451-5.94 6.554-5.836 6.963-5.632 7.066-5.427 7.577-5.325 7.68-5.018 7.68-4.505 7.783-4.403 7.884-3.892 8.09-3.481 7.885-3.482 7.987-2.765 8.192-2.662 7.885-2.253 7.987-1.843 7.885-1.434 7.885-1.228 7.884-.922 7.68-.512z"/><path fill="#231815" d="m707.072 422.093-31.54 98.509-.511 2.457-.41 2.56.205 1.434.205 1.229.205 1.536.512 1.433.614 1.127.512 1.228.717.922.921 1.229 1.024.819.922.82 1.126.818 1.127.512 1.331.512 1.331.41 1.229.307 1.434.307 3.072-.41 2.97-.409 2.866-.717 2.868-.921 2.764-1.229 2.56-1.024 2.765-1.536 2.458-1.638 2.15-1.741 2.048-2.048 2.15-2.048 1.844-2.355 1.74-2.356 1.434-2.457 1.331-2.663 1.127-2.764 1.126-3.79.41-1.126 27.955-86.937h60.928l-51.917 159.949h-60.109l6.964-21.914-2.97 2.97-3.38 2.867-3.48 2.56-3.278 2.457-7.577 4.506-3.687 1.946-3.993 1.843-4.096 1.536-4.096 1.433-4.199 1.127-4.3.921-4.301 1.024-4.301.512-4.506.41h-8.396l-1.639-.41-3.481-.204-3.38-.717-3.174-.922-3.174-1.229-3.072-1.433-2.765-1.946-2.663-1.945-2.457-2.356-2.048-2.355-2.048-2.662-1.741-2.97-1.229-2.97-1.126-3.276-.82-3.38-.511-3.379-.205-3.584v-2.15l.41-2.15.307-2.253.614-2.15.205-1.844.307-1.74.307-1.946.615-1.741 36.25-112.333h60.62zm299.725 39.321v-3.993l-1.024-3.789-1.639-3.072-1.433-3.482-1.946-3.379-1.945-3.379-2.458-2.765-3.072-2.867-2.867-2.253-2.56-2.355-3.175-1.843-3.584-1.536-3.481-1.331-3.584-.922-3.994-.717-3.891-.614-4.403-.615h-58.675l-3.994.82-3.686.716-3.38 1.024-3.584.922-3.379 1.126-3.174 1.127-3.482 1.331-2.97 1.331-2.969 1.434-2.97 1.74-5.632 3.38-2.867 1.843-2.56 1.843-2.457 2.15-2.663 1.946-2.355 2.355-2.355 2.048-2.253 2.253-2.253 2.56-2.253 2.663-2.252 2.764-2.048 3.072-2.253 3.38-2.253 3.584 57.242 6.246 2.662-3.482 2.458-2.97 2.355-2.457 2.662-2.048 1.639-1.126 1.945-1.331 2.56-1.332 2.867-1.126 2.868-.82 2.867-.818h13.005l3.584.716 4.096 1.127 2.15.717 2.048.819 2.048.819 1.843 1.024v9.626l-.614 1.638-.82 1.74-.716 1.64-5.94 2.047-5.631 1.741-5.632 1.434-5.632 1.33-3.482.718-4.096 1.228-4.813 1.024-5.837 1.127-2.97.819-3.174.512h-3.686l-3.482.717-3.686.307-3.994.717-3.89.717-4.097.716-7.373 1.536-6.963 1.639-6.144 1.945-5.837 2.048-5.427 2.253-4.915 2.355-4.3 2.56-3.892 2.765-3.584 3.072-3.277 2.97-2.765 3.174-2.867 3.38-1.229 1.843-1.126 1.945-1.126 1.843-.922 2.15-.922 2.151-1.024 2.15-.921 2.356-.717 2.457v2.458l-.614 2.253v16.486l.819 1.946.717 1.843.921 1.74.922 1.64.921 1.433 1.23 1.74 1.433 1.537 1.331 1.433 1.536 1.536 1.434 1.331 1.74 1.332 1.946 1.126 1.74 1.126 2.356.82 2.15 1.024 2.458.716 2.662.615h27.75l5.12-.615 5.018-.921 5.12-1.024 4.71-1.229 4.609-1.536 4.505-1.638 2.663-.922 2.457-1.229 2.56-1.229 2.868-1.536 3.89-2.252 4.404-2.458 4.096-2.765 4.096-3.379-.512 1.843v8.295l.614 2.97v2.662l.615 1.33.717 1.332h58.572l-.614-1.331-.512-1.639v-9.01l5.427-16.692 4.71-14.746 4.097-13.414L994.304 512l3.072-10.24 2.867-9.011 2.458-7.885 2.253-6.758.921-3.584.717-3.482v-5.222zm-76.903 55.91-1.33 3.585-1.434 3.481-2.048 3.38-1.946 3.276-2.253 2.97-2.457 2.867-2.868 2.56-2.764 2.458-3.277 2.048-3.072 2.048-3.38 1.74-3.788 1.434-3.482 1.127-3.993 1.024-3.994.716h-10.445l-1.74-.614-1.434-.512-1.331-.922-1.332-1.126-1.126-1.331-.717-1.229-.819-1.229v-7.68l.614-1.843v-1.536l.922-1.536.922-1.434 1.126-1.433 1.229-1.434 1.331-1.229 1.434-1.126 1.536-1.126 1.638-.922 2.048-1.126 2.253-.922 2.765-1.126 6.246-2.15 7.885-2.151 1.843-.615 2.253-.614 3.584-.717 3.584-.921 3.481-.922 3.584-.717 3.482-1.024 3.584-1.126 3.482-.922 3.379-1.126zm-638.668-55.91-.615-3.993-.717-3.789-1.33-3.072-1.844-3.891-2.048-3.38-1.536-2.969-2.458-2.765-2.56-2.867-2.867-2.253-2.97-2.355-3.174-1.843-3.481-1.536-3.584-1.331-3.687-.922-3.993-.717-3.79-.614-4.198-.615h-51.097l-3.891.615h-3.892l-3.993.819-3.584.717-3.687.717-3.481 1.126-3.38 1.126-3.174 1.23-3.174 1.228-3.175 1.331-3.072 1.741-2.97 1.434-2.764 1.74-2.867 1.844-2.765 1.843-2.662 1.945-2.458 1.946-2.56 2.15-2.355 2.253-2.355 2.048-2.356 2.253-1.945 2.458-2.355 2.56-2.253 2.867-2.253 2.97-2.15 3.379-2.253 3.584 57.344 6.246 2.457-3.38 2.458-2.969 2.56-2.457 2.458-2.15 1.945-1.127 1.843-1.229 2.458-1.331 2.867-1.229 2.97-.82 2.97-.818h18.329l2.15.716 2.048.82 2.048.921 2.048.922 1.946.921v9.524l-.512 1.74-.82 1.639-.716 1.74-5.837 1.946-5.837 1.741-5.632 1.536-5.632 1.229-3.174.717-4.096 1.228-5.018 1.127-5.939 1.126-2.97.717H179.2l-3.38.614-3.583.82-3.687.512-3.788.716-4.199.82-4.096.716-7.373 1.434-6.656 1.74-6.45 1.946-5.838 1.946-5.222 2.253-4.813 2.457-4.608 2.458-3.891 2.867-3.38 2.97-3.174 3.072-3.072 3.174-2.764 3.38-1.127 1.843-1.331 1.843-.922 1.945-1.126 2.048-1.024 2.15-1.536 2.56v2.356l-.717 2.458-1.126 2.15v16.896l.614 1.843 1.229 1.741.717 1.843 1.024 1.741.819 1.638 1.126 1.536 1.23 1.741 1.33 1.434 1.332 1.536 1.433 1.433 1.741 1.332 1.638 1.433 1.639 1.024 2.15 1.229 1.946.82 2.355 1.74 2.458.614 5.632 1.23h24.78l5.223-.615 5.017-.922 4.916-1.024 4.915-1.229 4.608-1.536 4.403-1.638 2.662-.922 2.356-1.228 2.662-1.23 2.765-1.535 4.198-2.253 4.096-2.458 4.096-2.764 4.199-3.38-.615 1.844v8.806l.512 2.97v1.33l.512 1.332.615 1.331.716 1.331h58.573l-.614-1.33v-12.391l4.915-16.384 4.71-14.746 4.301-13.414L278.835 512l3.38-10.24 2.764-9.011 2.56-7.885 2.253-6.758.512-1.946v-14.54zm-77.005 55.91-.922 2.56-1.126 2.458-1.127 2.458-1.126 2.253-1.331 2.253-1.331 2.15-1.536 1.946-1.434 1.74-2.97 3.38-1.945 1.433-1.843 1.741-1.844 1.536-2.252 1.331-2.458 1.229-2.458 1.331-1.843.922-2.355.819-2.048.717-2.048.614-2.048.512h-2.048l-4.3.717h-12.186l-1.536-.614-1.332-.717-1.126-1.127-1.331-1.33-.717-1.332v-1.229l-.512-1.331v-6.349l.512-1.843.512-1.536.922-1.434.921-1.433 1.024-1.434 1.229-1.433 1.331-1.23 1.331-1.126 1.536-1.126 1.639-.922 2.048-1.126 2.56-.922 2.56-1.126 6.451-2.15 7.578-2.15 1.945-.615 2.253-.615 3.584-.716 3.584-.922 3.482-.922 3.584-.716 3.584-1.024 3.276-1.127 3.687-.921 3.379-1.127zm315.187-152.063-26.112 83.558 3.072-2.97 3.072-3.071 3.174-2.663 3.584-2.56 3.584-2.355 3.687-2.253 3.789-1.843 3.993-1.843 4.096-1.741 4.096-1.229 4.199-1.331 4.3-.922 4.506-.819 4.3-.512 4.506-.41 4.71-.204h2.049l1.536.41h1.638l3.584.307 3.38.819 3.174.921 3.174 1.127 2.97 1.638 2.867 1.741 2.662 2.048 2.253 2.355 2.253 2.355 2.048 2.868 1.638 2.764 1.536 2.97 1.127 3.277.717 3.072.512 3.686.307 3.584-.307 2.253v2.355l-.512 2.253-.512 2.048-.205 1.843-.307 1.946-.615 1.74-.614 1.639-35.943 112.128h-61.03l31.846-98.406.615-2.458.205-2.662v-1.332l-.205-1.228-.307-1.332-.41-1.33-.614-1.127-.717-1.331-.82-.922-.921-1.126-.922-1.024-1.126-.615-1.126-.819-1.127-.717-1.331-.614-1.229-.307-1.331-.308-1.536-.204-2.97.204-3.072.41-2.97.82-2.764.92-2.662 1.127-2.663 1.127-2.56 1.536-2.355 1.74-2.253 1.741-2.15 1.946-2.15 2.048-1.639 2.253-1.74 2.457-1.434 2.458-1.536 2.662-1.127 2.56-1.331 4.199v.307l-.307.512-27.443 86.835H398.54l70.144-220.98z"/></svg>
