<svg xmlns="http://www.w3.org/2000/svg" class="icon" viewBox="0 0 1024 1024"><path fill="#0082ca" d="M759.998 391.843h76.785v145.93h67.485v68.186h-144.81V393.383a1.67 1.67 0 0 1 .45-1.56zm-294.9-12.869c16.29 10.84 32.908 21.239 48.127 32.998-34.418 21.718-68.415 44.217-102.853 66.205 5.31 4 11.26 7.31 16.289 11.29 34.907-22.129 69.525-43.997 103.993-66.206a536 536 0 0 1 44.997 30.248c-34.678 21.918-67.996 44.937-102.393 67.085a177 177 0 0 0 16.998 10.85c35.538-21.689 69.996-44.217 104.853-66.646v-73.045h76.845v145.48c21.619 1.09 45.677 0 68.205.44v68.186H595.17v-69.306c-42.397 26.139-86.094 55.367-128.91 82.825-44.588-28.998-87.635-59.806-131.992-88.804a101.85 101.85 0 0 1-94.283 75.285c-31.578 2.32-67.486-1.54-103.993 0V391.773c45.517 3.1 95.543-6 131.55 5.31a100.88 100.88 0 0 1 65.146 67.105c44.407-27.918 88.284-56.686 132.461-85.214zM209.276 460.67v77.074a69.2 69.2 0 0 0 43.047-7 45.077 45.077 0 0 0 5.08-59.565 55.36 55.36 0 0 0-47.687-11.94c-.65.21-.44.89-.44 1.54zM496.446.13h31.788C798.575 9.02 1015.59 226.235 1024.2 496.586v30.998C1015.99 798.365 798.335 1015.91 527.564 1024h-31.118C225.985 1015.28 8.89 797.995.36 527.574v-30.998c.4 0 .58-.24.51-.89C8.9 225.355 226.175 8.08 496.516.06zM395.973 73.545a453.589 453.589 0 0 0-58.206 856.991 437.5 437.5 0 0 0 190.817 34.558 451.1 451.1 0 0 0 401.972-277.891c95.754-230.984-12.619-495.966-242.793-593.63a449.7 449.7 0 0 0-191.857-34.417 475.6 475.6 0 0 0-100.053 14.389z"/></svg>
