<svg xmlns="http://www.w3.org/2000/svg" class="icon" viewBox="0 0 4252 1024"><path fill="#039" d="M2943.938 851.224c-182.294 0-253.002-168.624-253.002-339.257 0-172.743 70.559-341.367 253.002-341.367s253.135 168.624 253.135 341.367c0 170.633-70.676 339.257-253.135 339.257m0-851.224c-288.215 0-454.846 215.796-454.846 512s166.515 512 454.846 512c288.48 0 454.978-215.796 454.978-512S3232.418 0 2943.938 0M0 27.626h723.776V200.25h-521.55v213.8h486.337v168.624H202.225v239.32h521.551v172.743H0zm1192.325 503.89H1010.03V199.984h182.294c125.57 0 209.949 55.145 209.949 166.763.016 110.024-84.379 164.77-209.95 164.77M808.304 994.6h201.993V704.26h182.177c245.162 0 409.932-121.718 409.932-337.38 0-217.79-164.903-339.258-409.932-339.258h-384.17zM3679.557 27.626h-205.83V994.6h198.123V602.192c0-105.888-3.854-201.977-7.84-284.362 23.52 47.305 94.078 192.26 125.438 247.288l256.855 429.62h205.83V27.506h-195.997v382.293c0 106.17 3.854 211.943 7.84 296.188-23.52-48.9-94.078-194.136-127.564-249.148zM1832.005 674.76c0 129.292 107.765 180.583 221.642 180.583 74.546 0 198.123-21.66 198.123-121.717 0-105.888-149.223-125.571-292.201-162.777-151.084-41.06-296.188-96.205-296.188-276.522C1663.381 94.078 1851.671 0 2028.135 0c204.102 0 390.531 88.232 390.531 313.728h-200.248c-7.84-117.598-98.198-147.098-199.984-147.098-68.698 0-155.07 27.24-155.07 109.626 0 74.545 49.033 86.238 294.328 149.223 70.559 19.517 294.061 62.702 294.061 282.634 0 180.317-141.25 313.728-406.078 313.728-215.663 0-417.64-105.888-415.78-347.08z"/></svg>
