<svg xmlns="http://www.w3.org/2000/svg" class="icon" viewBox="0 0 2230 1024"><path fill="#585a58" d="M1415.319 716.905q-5.149-.808-10.354-1.201a42.8 42.8 0 0 1-18.463-4.362 29.5 29.5 0 0 1-9.174-8.388 36.8 36.8 0 0 1-5.535-11.798 47.4 47.4 0 0 1-1.594-14.094 57 57 0 0 1 2.645-15.273 321 321 0 0 1 18.592-48.803 87.66 87.66 0 0 1 30.997-36.653 68.7 68.7 0 0 1 13.965-6.329 149 149 0 0 1 15.867-4.29l7.344-.836 4.44-.515 1.338-.158c1.465 0 2.938-.043 4.347-.043 28.466 0 47.344 6.007 56.089 17.877a29.36 29.36 0 0 1 5.499 14.944 54.5 54.5 0 0 1-2.739 20.837l-11.627 30.34c-3.182 8.044-6.671 16.553-10.64 24.312a94.8 94.8 0 0 1-12.806 19.449 65.2 65.2 0 0 1-17.877 14.387 91.7 91.7 0 0 1-25.913 9.117 120 120 0 0 1-23.01 2.345 70.5 70.5 0 0 1-11.391-.865m49.553-136.039a49 49 0 0 1-6.336 2.603 30 30 0 0 0-8.33 3.968 61.65 61.65 0 0 0-16.01 24.756c-4.698 10.904-8.745 23.317-12.32 34.265-1.988 6.078-3.862 11.813-5.542 16.339l-.236.643a92 92 0 0 0-5.527 19.586 23.9 23.9 0 0 0 .514 10.01 10.48 10.48 0 0 0 5.757 6.715 21.1 21.1 0 0 0 8.58 1.466 40 40 0 0 0 8.645-.959c25.656-5.963 33.45-31.262 40.994-55.73 2.031-6.594 4.133-13.422 6.536-19.607.622-1.617 1.523-3.54 2.474-5.57 3.861-8.288 9.16-19.636 5.613-29.318a12.16 12.16 0 0 0-7.973-7.465 42 42 0 0 0-13.757-1.68c-.959-.022-1.96-.022-3.082-.022m-256.34 132.5h-58.67l7.08-19.722h70.282a13.43 13.43 0 0 0 8.58-9.102c2.86-11.827-9.145-20.68-13.65-26.293-16.117-20.064-49.896-49.696-18.706-81.387 7.437-7.551 15.789-8.052 26.8-12.642h81.896v.5l-7.08 19.214c-19.156-.236-71.011-5.063-74.33 9.102-2.738 11.684 8.324 17.405 12.643 22.753 11.605 14.366 40.379 33.744 34.401 62.21-6.843 32.449-29.367 35.395-69.224 35.395zm410.076-1.516c-15.188-6.229-30.325-62.425-37.419-80.394l-7.079-18.706v1.009l-36.41 98.591-22.238.5v-.5l54.608-148.152 28.824.5 37.419 102.647h.5l37.39-103.132h22.239l-54.609 148.659c-1.966 0-4.154.086-6.435.179s-4.448.179-6.636.179a28.6 28.6 0 0 1-10.204-1.366zm-332.693 1.008 54.123-148.66h43.99v.5l-54.673 148.16zm-205.792 0 54.573-148.653 43.99.5-54.608 148.153zm-94.05 0-11.627-148.66c7.043-.121 40.529-1.609 43.482 1.008l8.087 98.592 1.008-.5 67.251-99.107h24.777l-100.623 148.66zm53.056-239.672 6.064-6.571h.508l3.575-.508c-1.43 1.43-3.26 1.387-4.555 3.032h3.575c-2.145.987-2.28 1.094-2.517 4.047l-6.571.5zm41.952-14.158 2.024.508-1.008.5a15.55 15.55 0 0 1-12.156 8.088c1.702-5.192 7.358-6.007 11.14-9.096m0-4.555 1.516 4.048-1.008.5zm-25.284-4.047c2.739-.171 5.77-.279 7.08 1.008zm.508-2.023 1.008-.508h1.008c-.715.493-.786.715-1.094.715a4.3 4.3 0 0 1-.915-.222zm2.517-1.516h1.008l-1.516 1.008zm606.794-52.078c-10.819-6.27-17.119-39.57-20.737-54.122l-1.516 1.008-34.4 53.63h-45.507l.5-1.517 60.68-92.535v-90.518h40.958v87.951h6.107l16.682 60.68c2.188 7.307 2.496 15.945 8.087 19.72 6.85 4.613 24.505 2.725 35.395 2.518l-.507 16.181c-8.838.043-22.882.937-36.053.937a71.9 71.9 0 0 1-29.69-3.961zm-303.898-5.563c-5.356-7.193-2.86-19.535-7.079-28.316a86 86 0 0 1-34.401 12.156l4.555-4.555c5.384-10.997 24.147-23.911 26.8-36.41l-14.144-108.224-146.636-.507v-14.151h145.156l-2.023-15.674h-168.917v-18.706h166.357l-2.532-20.229h47.03l2.516 20.229c21.516.48 26.178-3.84 30.34-20.229h29.317l-6.571 17.204c-10.604 26.715-14.809 22.467-50.569 21.745l7.08 53.63 10.618-37.899h33.371q-11.862 37.898-23.76 75.853l-12.643 27.809 2.517 16.682c2.653 15.245 2.403 31.884 7.08 44.497a65.3 65.3 0 0 0 25.283 2.517v18.706c-7.465.057-19.463.672-31.412.672-16.632 0-33.193-1.194-37.326-6.743zm-640.966 6.178a524 524 0 0 0-9.26-.107H592.135v-78.87H567.86V295.71h24.27v-80.908h122.366c3.49 0 7.308-.136 11.355-.272h.043c4.362-.15 8.86-.307 13.279-.307a95.6 95.6 0 0 1 14.487.9 26.3 26.3 0 0 1 10.911 3.733c9.153 6.321 8.08 41.28 7.38 64.405a543 543 0 0 0-.3 12.45h12.642v20.736h-12.664c0 4.29.236 9.231.465 14.45a287 287 0 0 1 .071 34.56c-1.065 12.477-3.883 20.264-8.623 23.804a31.9 31.9 0 0 1-14.266 5.162 120.5 120.5 0 0 1-18.691 1.123q-4.905-.029-9.825-.122zm-70.483-53.2 20.98.25h.236l21.766.258.837 2.224 12.806 33.679h19.214v-62.21H634.58v62.21h29.832v-.508l-14.158-35.395v-.5zm0-81.916 18.284.214 24.69.286 13.15 34.888h19.722v-60.672h-91.527v60.679h29.317v-.5l-6.793-17.105-6.857-17.282v-.501zm350.92 135.009h-50.583v-88.995h-73.808v-18.7h73.808v-26.299l-44.791.258h-.065l-43.618.25c.043 6.393.258 14.18.508 23.196v.043c.543 19.264 1.215 43.21.329 64.026a216 216 0 0 1-2.689 28.066 75 75 0 0 1-2.603 10.661 27.5 27.5 0 0 1-3.646 7.508h-45.506v-.507a47.3 47.3 0 0 0 5.005-12.585 98 98 0 0 0 2.46-15.224c.987-10.84.858-23.046.715-34.866-.043-3.997-.086-8.123-.086-12.156V166.765h133.987v-12.156h50.568v12.156h92.535v18.677h-92.528V199.6c3.518-.043 8.33-.229 13.901-.443 8.938-.344 20.072-.773 30.504-.773 18.742 0 29.846 1.387 33.95 4.248a18.48 18.48 0 0 1 5.922 13.664 142.5 142.5 0 0 1 .307 19.8c-.064 2.267-.136 4.412-.157 6.436h14.687v18.705h-14.687c0 2.517.178 5.506.336 8.66.565 11.54 1.258 25.899-2.86 31.791a9.3 9.3 0 0 1-5.142 2.631 64.5 64.5 0 0 1-9.86 1.61c-6.908.714-15.946 1.029-27.616 1.029-10.54 0-21.28-.286-29.117-.493h-.178c-4.055-.108-7.551-.2-10.011-.23v88.99zm0-107.701h41.473v-26.293h-41.473zm0-45.006h41.473v-24.276h-41.473zm-94.917-56.882h-2.86l-41.244.236v56.64h88.438v-24.27h-73.8v-18.706h73.8v-14.186zm574.76 209.081v-69.274h-31.856v-.508l38.434-76.353c2.725-5.227 14.266-22.438 12.643-28.316l-1.516-2.517-48.038-.5.5-16.182h72.822c11.913 0 24.92-.35 27.808 8.58 4.29 13.365-20.886 41.402-23.26 55.117l33.371 65.227h-25.284l-14.68-27.809v93.029zm-148.152.5h-42.46a36.5 36.5 0 0 1-10.99-9.745c-5.005-5.5-10.125-11.19-14.351-11.19a4.83 4.83 0 0 0-3.962 2.237l-13.228 11.384-5.67 4.884-2.86 2.438-20.88-.25-21.087-.258.515-.257.5-.25 22.503-20.48 22.503-20.479c-2.095-2.33-4.062-4.419-5.942-6.435-4.755-5.134-8.51-9.181-11.634-13.271a49.1 49.1 0 0 1-7.344-12.972 71.5 71.5 0 0 1-3.825-17.826 268 268 0 0 1-1.066-27.83h-15.159v-14.18h15.123v-28.837h37.898v28.824l13.486-.25 13.815-.258v-28.316h37.898v28.824h15.159v14.158h-15.11a170.3 170.3 0 0 1-2.552 36.99 69.5 69.5 0 0 1-4.555 14.343 57 57 0 0 1-7.55 12.378l-15.174 14.687 8.73 7.973 37.283 34.008zM1251 285.193a132.6 132.6 0 0 0 .214 27.4c1.552 9.346 5.456 14.409 11.906 15.481a15 15 0 0 0 2.43.208 10.07 10.07 0 0 0 7.552-3.154 31.1 31.1 0 0 0 6.013-18.927 205 205 0 0 0-.043-24.126q-.164-3.54-.257-7.079h-27.322q-.158 5.091-.494 10.182zM1039.622 395.31l-23.769-42.982c-3.017-5.105-10.854-12.87-8.58-22.238a13.29 13.29 0 0 1 9.61-8.58 340 340 0 0 1 71.798-.501v16.181l-32.356.508 32.356 57.648zm-169.39 0 32.893-58.148h-32.363V320.48c17.533-.372 61.91-3.39 71.298 4.047 5.098 4.033 3.26 13.457.507 18.706l-30.346 52.084zm-368.623 0 19.72-116.804h42.49L544.097 395.31zm1186.215-72.807v-101.63c0-12.099 2.903-33.029-2.023-41.473a19.64 19.64 0 0 0-8.581-7.08c-7.55-2.767-65.306-3.575-74.837-1.008v151.184h-37.898V159.7h108.688c19.95 0 38.548-1.194 47.029 10.11 7.343 9.804 5.563 29.368 5.563 46.522v106.185zM519.3 255.253l-18.706-47.53v-.5H519.3v-.508l-20.229-52.085h42.474l20.222 53.093h-18.17l18.206 47.53zm55.116-51.07v-.5l1.009-1.008 31.355-48.038h47.022l-13.143 20.737h144.126v20.222H626.522l-5.563 8.58zm906.616-14.687V154.63h37.934v34.888z"/><path fill="#d60200" d="m632.092 713.351 25.285-70.268h-53.63l-25.791 70.282h-43.99l54.608-148.66h43.983v.509l-20.736 56.639 54.122-.508 20.229-56.124 43.99-.508-40.45 109.725c-3.39 8.645-8.81 32.578-15.174 36.918a35.9 35.9 0 0 1-17.876 3.06c-8.695-.028-18.334-.936-24.57-1.065m260.408-1.008c-7.214-3.232-30.797-53.7-35.902-64.212l-12.156 9.103-20.23 56.124h-43.96v-.5l54.587-148.152h43.482l-20.229 56.124h.508l72.306-56.124h32.892l-.5 1.008-73.322 56.125 46.522 91.526c-6.493 0-17.812.923-27.666.923a46.8 46.8 0 0 1-16.332-1.945m-133-147.644h43.497L748.875 712.85l-43.99.5zm281.138-51.577 1.516-2.024a69 69 0 0 0 18.706-10.11l1.008 1.008c-4.197 7.658-10.611 8.387-18.205 12.642zm4.047-13.15a71.1 71.1 0 0 0 17.698-15.173l-.5-2.024c-2.74.172-5.771.279-7.08-1.008l14.687-8.58.5-3.54 6.572-1.516a109.2 109.2 0 0 0 20.737-21.745c22.738-25.95 36.031-54.916 45.005-95.567 2.553-11.584-1.43-27.801 1.008-40.45 1.066-5.528 6.035-12.764 3.576-21.237-2.374-8.059-9.382-14.38-13.15-21.237l-9.61-31.856h1.515c1.73 5.534 4.026 12.292 10.619 13.15v-3.575c-2.789-9.039-6.679-23.132-15.173-26.293-.715 2.095-.522 2.145-2.517 3.032a65.6 65.6 0 0 1-1.009-21.237l-5.055-2.517c-1.938-3.518-.422-8.045-2.024-11.12-2.517-4.804-8.158-6.292-10.618-11.626l.5-1.516c1.366-.071 2.99 0 4.677 0 4.762.093 10.104.186 12.013-2.024l17.697 10.111c1.395-1.23.715-1.365 3.032-2.023a44.65 44.65 0 0 1 17.161 10.611c4.462 5.806 4.548 12.335 12.156 15.174.315 14.572 9.525 19.907 13.15 29.832l4.047 25.284c6.2 28.695 14.759 78.656-.507 104.162l-1.516-1.009-.5-1.008c.257-6.8 3.431-12.499 1.515-19.721a6.99 6.99 0 0 0-5.563 2.024 97.7 97.7 0 0 0-5.563 24.268 7.82 7.82 0 0 1 5.563 1.516c-2.295 4.448-3.103 10.369-5.563 15.674h-4.14c-.3 4.82 2.095 10.311.5 12.156l-7.079 15.174c-1.05 8.194 2.918 7.744-3.032 16.181-8.123 11.52-26.178 21.852-31.855 33.372 7.436-3.718 11.748-13.844 20.736-13.65l-1.516 3.031c-9.86 2.095-11.676 11.87-19.213 14.687l-8.58-.507c-2.518 8.266-25.943 23.496-36.919 24.269v-.508a49.2 49.2 0 0 0 1.516-10.11c-4.348.328-3.282 1.43-6.064 0v-1.03c-10.933 5.913-19.306 19.07-32.356 21.237zm43.99-1.516c6.9-6.936 30.49-18.298 33.372-25.792l3.032 1.516-.508 2.517c-4.648 1.309-3.06 4.29-6.064 6.572l-5.556 1.03-3.575 5.562a39.1 39.1 0 0 1-21.237 10.111zm-50.053-4.555 8.087-5.055 2.517.5v2.024a11.63 11.63 0 0 1-9.103 4.555zm.5-20.228 3.032-3.032 4.047-4.048 3.032.508-4.047 2.517 3.032-.508a7.5 7.5 0 0 0-2.517 4.555l-6.572.508zm42.474-14.688-.507-4.047c1.43 2.074 1.716 4.891 1.008 5.563a13.94 13.94 0 0 1-12.156 8.087c1.566-4.94 7.608-7.079 11.64-9.581zm-25.792-8.087 7.08.508v.5zm1.008-2.517h1.516l-2.023 1.008zm2.024-1.008h1.008l-1.516 1.008zm113.286-47.523v-3.575l4.047-4.047-.508-6.064c2.746.272 3.476.608 4.555 2.517l1.516 5.056-6.063 9.102z"/></svg>
