<svg xmlns="http://www.w3.org/2000/svg" class="icon" viewBox="0 0 1024 1024"><path fill="#f0f0f0" d="M0 512a512 512 0 1 0 1024 0A512 512 0 1 0 0 512" class="selected" data-spm-anchor-id="a313x.search_index.0.i30.57c13a81xA3evT"/><path fill="#2c2c2c" d="M84.024 421.366v180.956h28.928l.016-75.08 64.42-.02.046 75.018h28.8V421.448h-29.901l-.036 73.79-63.33-.021-.03-73.77zm243.62-1.782c-46.187 0-83.625 41.446-83.625 92.57s37.443 92.57 83.625 92.57 83.625-41.447 83.625-92.57-37.442-92.57-83.625-92.57m.743 151.516c-29.922 0-54.175-26.85-54.175-59.97s24.253-59.971 54.175-59.971c29.92 0 54.174 26.85 54.174 59.97 0 33.122-24.258 59.971-54.174 59.971m363.765-151.823c-46.187 0-83.625 41.446-83.625 92.57s37.443 92.569 83.625 92.569c46.188 0 83.625-41.446 83.625-92.57s-37.437-92.57-83.625-92.57m.743 151.516c-29.922 0-54.175-26.85-54.175-59.97 0-33.122 24.259-59.971 54.175-59.971s54.174 26.85 54.174 59.97-24.253 59.971-54.174 59.971m-243.282 30.203.066-179.569h22.226l70.016 110.945V421.468l28.857-.04v179.588l-22.17.016L477.67 488.78l-.276 112.215zm441.743-65.162c6.948-2.304 36.117-16.297 36.117-55.511 0-44.442-42.783-58.896-47.232-58.896h-66.12v180.839h28.063l.138-79.345 60.15 79.345h37.504c0-.006-44.452-59.362-48.62-66.432m-11.909-28.145-36.849.005V453.72h37.09c7.224 0 18.754 10.685 18.754 26.604 0 15.298-13.092 27.366-18.995 27.366" class="selected" data-spm-anchor-id="a313x.search_index.0.i27.57c13a81xA3evT"/></svg>
