<svg xmlns="http://www.w3.org/2000/svg" class="icon" viewBox="0 0 1024 1024"><path fill="#0096d6" d="M1019.22 512.44C1019.22 232.67 792.56 6 512.78 6c-7.51 0-15.29.27-22.8.54L386.43 291.41h90.13c53.65 0 82.62 41.31 64.11 91.74L413.26 734.28H306l137-376.34h-80.71L225.22 734.28h-107.3l161.22-442.87 97.1-266.63C162.72 84.33 6.33 280.15 6.33 512.44c0 239.28 165.78 439.66 388.67 492.77l93.9-258.32 165.78-455.48h197.69c53.65 0 82.62 41.31 64.38 91.74L804.36 691.63c-8.59 23.61-36 42.65-60.89 42.65H601l-103.51 284.34c5.09.27 9.92.27 15 .27 280 0 506.71-226.67 506.71-506.45z"/><path fill="#0096d6" d="M819.11 351.67h-80.47L625.71 661.49h80.47z"/></svg>
