<svg xmlns="http://www.w3.org/2000/svg" class="icon" viewBox="0 0 2276 1024"><path fill="#ffc915" d="M1.497 1024V1.556h2272.138V1024zM1508 516.373c3.75-130.146-107.436-236.945-236.026-236.782-127.062.163-246.476 108.237-235.092 257.267 8.583 112.343 104.902 216.504 235.922 216.816 129.227.296 239.421-108.12 235.196-237.301m625.663.34c1.823-129.79-105.05-236.396-234.692-236.915-129.36-.519-237.197 102.857-237.523 236.62-.326 132.99 107.451 236.915 236.13 237.226 128.722.311 238.13-105.762 236.085-236.93m-1289.39 1.068v.044c11.117 0 22.234-.089 33.351.045 4.417.06 6.463-1.69 6.048-6.152-.963-10.302-1.838-20.604-2.876-30.906-2.727-27.2-11.947-52.428-24.769-76.249-15.608-28.979-36.494-53.63-62.523-74.085-38.466-30.21-82.149-46.84-130.59-50.19-49.643-3.425-96.038 8.27-138.58 34.33-48.323 29.6-81.823 71.357-100.619 124.675-12.525 35.516-14.808 72.173-10.42 109.498 4.269 36.33 17.002 69.504 37.235 99.565 20.189 30.017 46.01 54.312 77.554 72.752 34.715 20.292 71.847 30.713 111.824 32.254 6.774.267 8.42-1.897 8.272-8.3-.415-19.018-.119-38.036-.327-57.069-.177-15.03 2.758-13.385-13.74-14.778-26.637-2.239-51.303-10.554-73.3-25.363-28.104-18.928-47.937-44.498-60.67-76.397-23.302-58.358-5.366-123.55 35.412-164.906 25.377-25.732 56.15-41.34 92.45-45.343 41.772-4.595 80.178 4.313 113.693 29.957 38.984 29.839 60.062 69.757 62.908 118.925.326 5.647 1.987 7.93 7.812 7.752 10.598-.296 21.226-.059 31.855-.059m-585.715 76.62h-.282c0-50.398-.118-100.796.134-151.18.03-6.536-1.912-8.552-8.375-8.434-20.248.341-40.511.415-60.76-.015-7.174-.148-9.16 2.076-9.16 9.205.044 100.545-.148 201.089-.504 301.618-.03 6.493 1.853 8.642 8.375 8.538 20.248-.34 40.511-.104 60.774-.148 9.798-.015 9.798-.074 9.798-9.872zm631.488 110.846c-1.23-1.794-2.016-3.38-3.202-4.58-3.29-3.335-6.818-6.433-10.11-9.754-29.808-30.135-59.573-60.3-89.367-90.435-18.543-18.75-37.131-37.443-55.734-56.15-10.08-10.138-20.085-20.351-30.447-30.193-1.467-1.394-5.958-2.09-7.026-1.038-16.78 16.35-33.188 33.1-49.805 49.627-3.009 2.994-2.786 4.862.326 7.767 7.397 6.893 14.393 14.2 21.494 21.405 19.21 19.492 38.332 39.073 57.617 58.491 16.853 16.972 33.914 33.737 50.842 50.65 18.84 18.825 37.65 37.665 56.357 56.624 3.039 3.083 5.114 2.713 7.945-.133 15.668-15.728 31.47-31.321 47.167-47.019 1.512-1.512 2.609-3.468 3.943-5.262M258.349 320.013h.193c0-10.865-.222-21.745.09-32.596.162-5.514-1.246-8.019-7.383-7.93-21.478.311-42.972.222-64.465.044-4.995-.044-7.13 1.423-7.07 6.7.237 22.472.266 44.944.177 67.43-.014 4.684 1.498 6.611 6.404 6.581a3841 3841 0 0 1 65.206 0c5.114.045 7.041-1.734 6.923-6.877-.252-11.132-.075-22.25-.075-33.352"/><path d="M1508 516.373c4.224 129.182-105.97 237.597-235.211 237.286-131.02-.311-227.34-104.472-235.923-216.816-11.384-149.03 108.03-257.104 235.093-257.267 128.604-.148 239.79 106.651 236.04 236.797m-235.552-156.116c-86.996-1.245-157.643 70.498-157.153 156.857.489 87.07 68.956 157.094 157.79 156.679 89.338-.43 156.471-69.639 156.916-156.872.43-87.114-70.276-157.805-157.553-156.664m861.214 156.457c2.03 131.168-107.363 237.241-236.085 236.93-128.664-.311-236.456-104.235-236.13-237.227.326-133.777 108.163-237.138 237.523-236.619 129.642.534 236.53 107.126 234.692 236.916m-235.76-156.486c-88.285-1.216-158.146 70.883-157.7 156.59.459 87.455 68.259 156.382 157.597 157.182 86.27.771 158.028-71.372 157.435-157.479-.578-85.78-70.143-157.375-157.331-156.293M844.273 517.78c-10.629 0-21.257-.237-31.87.089-5.84.178-7.485-2.105-7.812-7.753-2.846-49.167-23.909-89.086-62.908-118.924-33.515-25.659-71.921-34.567-113.692-29.957-36.302 4.002-67.074 19.61-92.451 45.343-40.778 41.356-58.714 106.548-35.412 164.906 12.733 31.884 32.566 57.468 60.67 76.397 21.997 14.808 46.663 23.124 73.3 25.362 16.513 1.394 13.578-.252 13.74 14.779.223 19.018-.088 38.05.327 57.068.148 6.418-1.497 8.568-8.271 8.301-39.978-1.542-77.095-11.947-111.825-32.255-31.558-18.454-57.365-42.734-77.554-72.75-20.218-30.062-32.966-63.236-37.235-99.567-4.388-37.324-2.105-73.981 10.42-109.497 18.796-53.318 52.296-95.074 100.619-124.676 42.557-26.059 88.938-37.754 138.58-34.33 48.441 3.335 92.124 19.967 130.59 50.19 26.03 20.456 46.915 45.107 62.523 74.086 12.837 23.82 22.042 49.049 24.77 76.25 1.037 10.286 1.912 20.603 2.875 30.905.415 4.462-1.645 6.21-6.048 6.152-11.117-.134-22.234-.045-33.351-.045.015-.044.015-.06.015-.074M258.558 594.4v149.697c0 9.813.015 9.857-9.798 9.872-20.263.045-40.511-.193-60.774.148-6.522.104-8.405-2.045-8.375-8.538.356-100.544.548-201.073.504-301.617 0-7.13 1.986-9.369 9.16-9.205 20.249.43 40.512.355 60.76.014 6.463-.103 8.42 1.898 8.375 8.435-.252 50.398-.134 100.781-.134 151.179.09.015.193.015.282.015"/><path d="M890.045 705.247c-1.334 1.794-2.416 3.735-3.943 5.262-15.698 15.698-31.499 31.291-47.167 47.019-2.83 2.846-4.906 3.216-7.945.133-18.692-18.959-37.517-37.799-56.357-56.624-16.913-16.913-33.974-33.678-50.842-50.65-19.285-19.418-38.407-38.999-57.617-58.491-7.1-7.204-14.097-14.512-21.494-21.405-3.127-2.905-3.335-4.773-.326-7.767 16.617-16.542 33.026-33.277 49.805-49.627 1.082-1.053 5.559-.356 7.026 1.038 10.362 9.842 20.367 20.055 30.447 30.194a33217 33217 0 0 1 55.734 56.15c29.81 30.134 59.574 60.3 89.368 90.434 3.29 3.335 6.818 6.419 10.11 9.754 1.17 1.2 1.956 2.786 3.2 4.58M258.349 320.013c0 11.117-.177 22.234.075 33.337.118 5.143-1.809 6.922-6.923 6.878-21.73-.178-43.476-.178-65.206 0-4.906.044-6.418-1.898-6.404-6.582.09-22.471.06-44.958-.177-67.43-.06-5.276 2.075-6.744 7.07-6.7 21.479.193 42.972.267 64.465-.044 6.137-.089 7.545 2.401 7.382 7.93-.311 10.866-.089 21.73-.089 32.596-.074.015-.133.015-.193.015"/><path fill="#ffc915" d="M1272.448 360.257c87.292-1.141 157.998 69.55 157.553 156.65-.445 87.233-67.578 156.456-156.916 156.87-88.834.43-157.301-69.608-157.79-156.678-.504-86.344 70.157-158.087 157.153-156.842m625.455-.03c87.174-1.081 156.738 70.514 157.33 156.294.594 86.121-71.164 158.25-157.434 157.48-89.338-.801-157.138-69.713-157.598-157.184-.43-85.72 69.416-157.805 157.702-156.59"/></svg>
