<svg xmlns="http://www.w3.org/2000/svg" class="icon" viewBox="0 0 1024 1024"><path fill="#2093fe" d="M3.584 529.728c6.4 38.144 19.712 74.624 35.52 110.272l1.6-.384-1.792-10.56c-3.392-19.776-6.912-39.488-6.784-59.52 0-33.728 5.12-67.328 12.8-100.288a421.76 421.76 0 0 1 107.52-183.616c75.2-75.584 179.84-124.032 289.664-137.92 28.288-4.352 56.768-3.392 85.312-2.432 8.832.32 17.664.64 26.432.768l9.536 1.28c26.048 3.584 52.16 7.232 77.312 14.976 28.032 6.336 54.08 17.664 80.128 28.928l6.528 2.88c27.2 12.16 52.8 27.264 76.16 45.056 16.32 12.16 31.552 25.6 46.72 38.912 12.16 10.048 22.016 21.568 31.936 33.088A529 529 0 0 0 896 326.912a53.3 53.3 0 0 0-5.44-15.488l-1.088-1.856c-9.152-15.936-18.304-31.936-28.16-47.488a351 351 0 0 0-48-58.432 374 374 0 0 0-56.064-47.232c-40.448-28.48-84.48-52.928-133.248-67.2-53.888-16.768-110.336-27.392-167.424-24.832-48.64.384-97.536 7.04-143.552 21.888C138.624 138.944 11.008 281.792 0 452.352c.192 6.4.192 12.8.256 19.2.192 19.456.384 38.976 3.328 58.24zm638.528 83.2 2.944-9.344.896 1.536c.576.896 1.088 1.728 1.344 2.56.96 8.256 2.432 16.448 3.84 24.704 1.28 7.232 2.56 14.464 3.52 21.76 10.24 59.584 18.56 119.552 26.624 179.584.576 3.84-1.28 5.888-4.48 7.488l-5.888 2.816c-17.408 8.32-34.816 16.64-53.312 22.528-41.408 14.208-83.84 25.536-127.744 29.056-57.728 4.992-115.904-1.792-172.16-14.912-49.28-12.352-94.912-34.816-138.24-60.608a463.7 463.7 0 0 1-138.688-132.16l-5.824-9.152A528 528 0 0 1 0 618.88c.064 5.12 2.176 11.2 4.224 17.024l2.24 6.784c14.592 44.8 34.368 88.128 63.232 125.952 25.024 32.768 51.712 64.768 85.248 89.6a472.3 472.3 0 0 0 258.88 101.568c24.128.384 48.256.32 72.32.064 158.4-11.968 296.768-115.968 363.52-254.912 11.264-21.376 18.752-44.224 25.856-67.2 1.984-6.528 3.584-13.12 5.184-19.776l2.88-11.456a5.6 5.6 0 0 1 1.216-1.984l.64-.832.64.832c.576.64 1.152 1.28 1.28 1.92 3.456 21.248 6.784 42.496 10.112 63.808 6.4 45.12 13.632 90.112 20.864 135.04l2.752 16.832c.448 3.52 1.6 4.288 4.864 4.288 12.032-.128 24-.128 36.032-.064h57.856c3.008.064 4.544-.768 4.032-3.968a445 445 0 0 1-1.92-12.928c-3.2-20.48-6.784-40.96-10.304-61.44-5.376-30.656-10.688-61.312-15.04-92.16a3484 3484 0 0 1-20.16-120.192c-5.376-29.248-10.048-58.624-14.72-88-2.88-18.112-5.76-36.224-8.832-54.4-.64-3.648-6.016-9.152-9.856-9.152h-74.432c-6.336 0-9.152 4.096-8 10.112l.64 3.392c1.088 6.08 2.24 12.224 2.24 18.432 0 8.32.128 16.768.32 25.152.384 21.44.768 42.88-1.6 64.256a421.4 421.4 0 0 1-40.896 156.032 310 310 0 0 1-29.824 51.392c-6.4 8.896-12.992 17.472-19.648 26.048l-5.312 6.848c-.768 1.024-1.792 1.792-2.88 2.56a30 30 0 0 0-1.472 1.024A1064 1064 0 0 1 750.016 672c-2.176-17.024-4.416-34.048-7.168-50.944-8.384-54.144-16.192-108.352-23.936-162.56l-9.536-66.048c-.64-4.288-2.816-6.784-7.232-6.784h-26.176A17546 17546 0 0 0 624 385.6c-7.168-.384-7.744 6.272-8.32 11.968a29 29 0 0 1-.384 3.584c-6.72 99.904-32.832 200.128-86.208 286.208-20.352 35.136-49.28 64.448-81.6 89.28-29.248 22.976-64.32 37.504-100.16 48a288.8 288.8 0 0 0 120.064-22.656c34.112-15.68 67.84-33.536 94.976-59.584 19.584-17.536 35.2-38.72 49.92-60.16 14.848-21.376 22.144-44.672 29.824-69.184z" style="--darkreader-inline-fill:var(--darkreader-background-2093fe, #016aca)"/></svg>
