<svg xmlns="http://www.w3.org/2000/svg" class="icon" viewBox="0 0 1024 1024"><path fill="#19c17b" d="M768.284 447.687v91.05A256.23 256.23 0 0 1 512 795.023a256.2 256.2 0 0 1-235.861-156.074L116.28 701.156C175.36 862.436 330.325 977.55 512 977.55c232.79 0 421.518-188.729 421.518-421.49V383.374L768.284 447.66zM256.142 546.19c-.142-2.531-.426-4.92-.426-7.452v-309.76L512 329.614l256.284-100.636V347.05l165.234-64.171V46.45H734.236l-228.55 100.608L277.105 46.45H90.51v509.44c0 18.034 1.252 35.754 3.499 53.19l162.133-62.861z"/></svg>
