<svg xmlns="http://www.w3.org/2000/svg" class="icon" viewBox="0 0 1024 1024"><path fill="#d81e06" d="M512 0C229.248 0 0 229.248 0 512s229.248 512 512 512 512-229.248 512-512C1024.085 229.333 794.965.085 512.299 0zm312.619 770.773s-24.79-112.085-65.195-179.072c-21.93-36.565-55.808-66.261-101.035-65.365-31.786 0-59.69 18.048-93.866 66.261a796 796 0 0 0-52.694 102.528s-12.373-28.8-26.88-57.301a343 343 0 0 0-25.813-44.757c-34.304-48.214-62.08-65.664-93.867-66.262-44.757-.896-79.104 28.8-100.864 65.195-40.448 67.157-65.194 179.072-65.194 179.072h-36.864l196.522-645.12 151.894 503.637 1.024.896 1.024-.896 151.893-503.637 196.693 644.821z" class="selected" data-spm-anchor-id="a313x.search_index.0.i42.57c13a81xA3evT"/></svg>
