<svg xmlns="http://www.w3.org/2000/svg" class="icon" viewBox="0 0 1024 1024"><path fill="#0054a7" d="M990.454 429.88h-3.794v7.133h3.794c2.272 0 3.852-1.487 3.852-3.538 0-2.06-1.58-3.595-3.852-3.595m3.966 17.87-4.674-8.319h-3.086v8.319h-2.818v-20.4h6.914c3.55 0 6.417 2.672 6.417 6.124 0 2.981-1.833 4.826-4.349 5.598l4.886 8.677zm-4.52-26.047c-8.649 0-15.62 7.142-15.62 15.874 0 8.74 6.971 15.882 15.62 15.882 8.617 0 15.67-7.142 15.67-15.882-.002-8.732-7.054-15.874-15.67-15.874m0 34.484c-10.285 0-18.6-8.335-18.6-18.61s8.314-18.593 18.6-18.593c10.27 0 18.584 8.318 18.584 18.593s-8.315 18.61-18.584 18.61M383.537 649.83l52.589-145.075c17.544-48.369-46.822-30.69-61.2-19.572-11.298 8.725-31.887 28.607-39.463 49.482L293.711 649.83h-90.813l52.588-145.075c17.532-48.369-46.81-30.69-61.201-19.572-11.305 8.725-31.903 28.615-39.474 49.499L113.066 649.83h-90.82l83.496-230.282c28.921 0 44.56 6.657 57.71 19.58 4.799 4.724 7.794 10.84 9.436 17.377 17.035-10.307 32.098-18.037 42.233-21.99 18.885-7.396 42.337-14.975 71.266-14.967 28.908 0 44.555 6.657 57.693 19.58 4.808 4.724 7.814 10.84 9.452 17.377 17.035-10.307 32.1-18.037 42.233-21.99 18.872-7.396 42.344-14.975 71.257-14.967 28.924 0 44.564 6.657 57.702 19.58 13.126 12.876 12.824 36.432 8.076 49.49L474.35 649.83zm136.88-41.275c28.357 5.178 57.583 7.873 87.413 7.873h.016c30.634 0 52.866-6.823 55.268-27.628 1.165-9.9-8.188-17.027-25.337-26.474-19.616-10.831-36.11-16.231-53.149-27.644-17.046-11.405-24.4-29.346-18.645-48.353 6.704-22.203 22.296-35.071 46.054-47.215 27.859-14.22 49.92-19.564 103.65-19.564 33.832 0 66.92 3.26 98.945 9.457l-11.536 31.795c-28.356-5.17-57.567-7.865-87.409-7.865-30.642 0-52.886 6.84-55.288 27.636-1.145 9.917 8.187 17.043 25.35 26.49 19.607 10.817 36.109 16.216 53.148 27.62 17.062 11.414 24.395 29.354 18.657 48.378-6.716 22.172-22.32 35.049-46.07 47.2-27.852 14.227-49.929 19.572-103.638 19.572h-.016a520 520 0 0 1-98.929-9.48zm328.737-179.55-12.102 33.385c47.413-9.456 94.247-9.456 94.247-9.456l12.11-33.386s-47.129 0-94.255 9.457M859.91 649.83l63.048-173.872s-47.136 0-94.253 9.464L769.101 649.83z"/></svg>
