<svg xmlns="http://www.w3.org/2000/svg" class="icon" viewBox="0 0 6854 1024"><path fill="#6f2a8e" d="M6848.493 1002.579h-346.706l-286.726-389.485v389.485h-282.505V13.873h505.031c235.443 0 312.496 102.694 316.78 291.01 4.284 166.958-29.99 265.369-188.38 303.927zM6304.967 185.05h-89.906v265.37h89.842c115.611 0 171.243-42.844 171.243-132.685 0-94.126-55.632-136.969-171.243-132.685zm-445.18 817.528-286.79-4.285-64.2-214.021h-321l-68.548 218.306h-295.295L5170.66 9.524h329.568zm-346.706-355.275-145.6-359.494c-4.285 0-119.896 329.569-132.685 359.494zM3843.69 313.452 3629.795 382a244.52 244.52 0 0 0-235.442-141.253c-145.538 17.137-218.306 68.484-226.875 265.369 4.285 205.452 89.906 312.495 252.58 329.632a250.66 250.66 0 0 0 231.095-102.758v-85.622h-286.726V433.347H3848.1V801.41c-64.264 145.537-214.021 218.306-440.896 222.59-299.642-17.137-547.874-179.747-560.727-509.38 12.79-321 256.8-496.527 547.875-513.6a441.92 441.92 0 0 1 449.464 312.432zm-1044.34-38.495h-256.864v727.622H2234.34V274.957h-244.011V13.873h809.022zm-937.42 727.623h-680.56V13.873h667.706v261.084h-363.779v132.684h368.063V638.8h-368.063v132.684h376.632zm-864.59 0H629.21C513.663 767.2 410.905 643.021 278.22 411.927c4.285 42.842 4.285-21.422 4.285 47.063v547.874H0V13.809h282.506c29.926 47.127 398.053 642.064 398.053 637.78 0-209.737 4.284-423.759 4.284-637.716h312.495zm3766.635 0h-680.558V13.873h667.77v261.084h-359.559v132.684h363.843V638.8h-363.843v132.684h372.347z" style="--darkreader-inline-fill:var(--darkreader-background-6f2a8e, #6b2988)"/></svg>
