<svg xmlns="http://www.w3.org/2000/svg" class="icon" viewBox="0 0 1024 1024"><path fill="#ffd400" d="M0 0h1024v1024H0z"/><path fill="#ffd400" d="M0 800.552h1021.417V224.006H0z"/><path d="M210.159 507.062c-11.696 0-18.591-.136-22.54-.262a4.97 4.97 0 0 1-4.824-4.983v-63.522a4.997 4.997 0 0 1 4.825-4.995c3.948-.114 10.843-.25 22.539-.25 28.57 0 44.544 11.719 44.544 37 0 25.293-15.974 37.012-44.544 37.012m13.767-112.515c-36.26.74-87.882 2.617-87.882 2.617a5.6 5.6 0 0 0-5.427 5.598v221.503c0 3.436 2.799 6.223 6.258 6.223h39.651a6.224 6.224 0 0 0 6.247-6.223l.022-74.24a4.99 4.99 0 0 1 5.223-4.995c5.552.261 16.11.534 35.92.534 47.445 0 75.89-32.05 75.89-75.514 0-43.452-28.457-76.459-75.89-75.503m199.941 199.6c-34.384 0-39.174-32.881-39.174-81.567 0-49.482 4.79-81.578 39.174-81.578 34.395 0 39.197 33.541 39.197 81.578 0 48.492-4.802 81.579-39.197 81.579m0-199.612c-30.071 0-91.75 7.68-91.75 118.033 0 110.365 61.667 118.022 91.75 118.022s91.762-7.669 91.762-118.022c0-110.364-61.668-118.033-91.762-118.033m397.63 199.6c-34.394 0-39.196-32.881-39.196-81.567 0-49.482 4.802-81.578 39.197-81.578 34.383 0 39.185 33.541 39.185 81.578 0 48.492-4.802 81.579-39.185 81.579m0-199.612c-30.095 0-91.762 7.68-91.762 118.033 0 110.365 61.667 118.022 91.762 118.022 30.083 0 91.761-7.669 91.761-118.022 0-110.364-61.678-118.033-91.761-118.033M548.318 512.614c0 59.973 20.332 118.033 96.586 118.033 28.25 0 50.984-9.728 59.562-13.96a4.517 4.517 0 0 0 2.185-5.689l-9.671-24.77a4.483 4.483 0 0 0-5.405-2.707c-6.417 1.809-19.91 5.051-33.905 5.051-42.656 0-57.026-33.052-57.026-75.958 0-42.917 14.37-75.56 57.037-75.56 13.972 0 27.455 3.243 33.883 5.04a4.47 4.47 0 0 0 5.393-2.73l9.717-25.156a4.494 4.494 0 0 0-2.208-5.666c-8.544-4.233-31.288-13.96-59.562-13.96-76.254 0-96.586 58.049-96.586 118.032"/></svg>
