<svg xmlns="http://www.w3.org/2000/svg" class="icon" viewBox="0 0 5441 1024"><path fill="#27387d" d="M999.275 17.12v-.77H968.97c-1.136 0-2.158-.095-3.276-.095v.096H357.827c-208.2 0-312.174 83.964-312.174 251.85v462.366c0 166.82 104 250.288 312.174 250.288h608.662v-.297c207.432-.253 311.248-83.58 311.248-250.008V268.184c-.017-158.742-92.873-242.357-278.462-251.065m-66.62 729.072H427.827V245.73h504.828zm3121.338 231.274h-362.21V724.76h-507.107v252.707h-362.034V235.031c0-63.327 23.738-113.65 71.66-151.283 46.706-36.55 113.431-54.751 200.2-54.751h689.247c86.768 0 153.449 18.2 200.156 54.75 46.786 36.507 70.088 87.11 70.088 151.284zm-362.227-427.414v-274.47h-507.108v274.47zM5352.671 76.525c-36.55-29.04-92.865-44.576-168.306-47.04l1.275-.331h-14.166c-3.03-.061-5.79-.166-9.03-.166h-644.619l-.27.166h-21.066c-86.768 0-153.44 18.079-200.183 54.716-46.733 36.376-70.41 85.51-71.633 146.725h-.113v2.262c0 .96-.079 1.572-.079 2.384h.079v742.225h362.252V729.694h585.58c159.03 0 238.567-63.677 238.567-191.703V233.8c.043-73.057-19.415-125.354-58.288-157.275m-310.2 444.881h-460.69V275.6h460.69zM2367.454 28.988h-54.087v551.72c-2.384 5.79-7.563 10.121-18.629 8.165 0 0-7.109-1.485-12.13-6.786-61.127-94.532-296.507-418.069-371.851-521.16-.184-.42-.603-.69-.917-1.092h.218a38 38 0 0 0-3.738-3.24c-.568-.882-1.074-1.572-1.817-1.825-19.144-17.24-44.288-25.764-77.711-25.764h-292.55c-36.83 0-65.083 10.471-84.89 30.995-19.922 20.795-29.826 48.812-30.262 83.397l-.542.262v833.815h342.165s-1.912-440.47-2.82-570.27c1.45-8.61 7.694-21.109 33.807-17.947 0 0 10.044.751 14.323 8.34 66.026 105.415 498.663 579.877 498.663 579.877h355.388V29.005h-292.62z"/><path fill="#ec2727" d="M627.844 617.179s383.387 220.226 463.248 394.89h298.34c-24.734-58.647-166.926-319.528-761.588-394.89"/></svg>
