<svg xmlns="http://www.w3.org/2000/svg" class="icon" viewBox="0 0 1024 1024"><path fill="#ffc915" d="M0 512C0 229.233 229.233 0 512 0s512 229.233 512 512-229.233 512-512 512S0 794.767 0 512"/><path fill="#2c2c2c" d="M542.106 408.74c0 4.004-2.15 6.38-5.796 6.38H374.548c-2.488 0-4.147 1.822-4.147 4.546V761.62c0 4.015-2.15 6.38-5.796 6.38h-27.514c-3.646 0-5.796-1.823-5.796-6.38V382.843c0-3.994 2.15-6.37 5.796-6.37H536.31c3.645 0 5.806 2.366 5.806 6.38v25.887zm-49.101 131.379a4.2 4.2 0 0 1-.973-2.703c0-2.325 1.802-4.199 4.065-4.199h61.338c73.728 0 135.27-56.32 135.27-138.24C692.705 316.713 634.02 256 543.846 256H337.551c-3.932 0-6.256 2.376-6.256 6.4v25.969c0 4.024 2.324 6.4 6.256 6.4h204.145c70.144 0 108.78 38.031 108.78 100.208 0 62.894-38.646 99.472-108.78 99.472h-82.842c-3.932 0-6.256 2.375-6.256 6.4v49.182c0 2.56.532 4.762 1.607 6.042l184.996 209.183c2.335 2.375 4.301 2.744 6.984 2.744h42.168c4.117 0 5.55-4.055 2.908-6.81L493.015 540.13z" class="selected" data-spm-anchor-id="a313x.search_index.0.i24.57c13a81xA3evT"/></svg>
