<svg xmlns="http://www.w3.org/2000/svg" class="icon" viewBox="0 0 1024 1024"><path fill="#d81e06" d="M0 512c0 282.624 229.376 512 512 512s512-229.376 512-512S794.624 0 512 0 0 229.376 0 512" class="selected" data-spm-anchor-id="a313x.search_index.0.i37.57c13a81xA3evT"/><path fill="#fff" d="M890.88 421.888v-16.384h-32.256V578.56h32.256V421.376zm-136.704 39.936 35.84-44.032 9.728-11.776h22.528v173.056h-32.256v-110.08L768 495.616l-6.656 8.192-12.288 15.36-3.584 4.608h-9.728l-3.584-4.608-12.288-15.36-6.656-8.192-22.016-26.624v110.08h-32.256V406.016h22.528l9.728 11.776 35.84 44.032 13.824 16.384 13.824-16.384zm-208.384-55.808h-68.096v173.056h68.096c47.616 0 86.528-38.912 86.528-86.528s-38.912-86.528-86.528-86.528m0 140.8h-35.84V438.272h35.84c30.208 0 54.272 24.064 54.272 54.272S576 546.816 545.792 546.816m-100.864 32.256H309.76V406.016h135.168v32.256H342.016v35.84h89.6v32.256h-89.6v40.448h102.912zM165.376 406.016h57.344c32.256 0 58.88 26.112 58.88 58.88s-18.432 50.176-43.52 56.832l48.128 57.856h-41.984l-46.592-55.808-19.456-23.552v-8.704h44.544c14.848 0 26.624-11.776 26.624-26.624s-11.776-26.624-26.624-26.624h-57.344v140.8H133.12V406.016z"/></svg>
