<svg xmlns="http://www.w3.org/2000/svg" class="icon" viewBox="0 0 3264 1024"><path d="M513.792 335.104a168.06 168.06 0 0 0-48.128-118.656 166.2 166.2 0 0 0-117.44-49.728h-82.24v335.104h82.24a166.2 166.2 0 0 0 116.864-49.152 168 168 0 0 0 48.704-117.568m374.08 668.16H586.24L346.624 668.8h-80.64v333.632H0V0h381.056c219.712 0 399.04 150.272 399.04 335.104 0 112.704-68.736 213.44-173.568 275.008l281.408 393.152"/><path d="M1188.096 395.264c-70.208 0-129.92 96-129.92 214.784 0 118.848 59.712 215.04 129.92 215.04 71.936 0 131.584-96.128 131.584-215.04s-59.648-214.784-131.584-214.784m409.664 214.784a412.6 412.6 0 0 1-67.712 228.864 409.3 409.3 0 0 1-182.848 152.32 406.72 406.72 0 0 1-446.08-87.168 413.12 413.12 0 0 1-90.24-447.872 410.56 410.56 0 0 1 150.144-185.024 407.17 407.17 0 0 1 227.072-69.888 405.5 405.5 0 0 1 289.28 118.912 409.86 409.86 0 0 1 120.384 289.92zm624.192-392.128-306.56 308.096v-309.12h-265.984v785.536h266.048V683.776l319.872 318.656h334.784l-406.592-408.96 336.768-338.56v466.304c0 154.752 92.544 297.6 325.76 297.6 110.656 0 212.224-62.784 261.568-120.192l119.552 103.68H3264V217.92h-265.984v508.16c-29.952 52.608-71.68 85.696-136.192 85.696s-95.488-39.04-95.488-163.84v-430.08h-544.384z"/></svg>
