<svg xmlns="http://www.w3.org/2000/svg" class="icon" viewBox="0 0 1024 1024"><path fill="#10289c" d="M0 512C0 270.677 0 150.016 74.923 74.923S270.677 0 512 0s361.984 0 437.077 74.923S1024 270.677 1024 512s0 361.984-74.923 437.077S753.323 1024 512 1024s-361.984 0-437.077-74.923S0 753.323 0 512"/><path fill="#fff" d="M86.699 550.57H51.2c-3.072 23.553 4.95 38.06 24.917 43.52a81.9 81.9 0 0 0 47.104 0 38.23 38.23 0 0 0 10.411-63.658q-8.533-5.461-17.067-10.24L104.107 512l-1.707-1.365a78.3 78.3 0 0 1-12.117-8.022 10.24 10.24 0 0 1-2.219-15.36 19.97 19.97 0 0 1 13.312-4.949c6.144 0 8.875 4.95 9.216 10.923v4.096a36 36 0 0 0 0 4.096h32.597c1.878-24.918-6.656-37.206-31.061-40.619a111.3 111.3 0 0 0-31.915 1.195 30.72 30.72 0 0 0-26.794 23.893 35.16 35.16 0 0 0 17.066 40.619c4.438 2.56 8.875 5.12 13.483 7.509s10.24 5.803 15.19 8.875a43.9 43.9 0 0 1 11.605 9.386 13.31 13.31 0 0 1 0 17.067c-3.755 5.973-10.411 5.12-16.043 3.925a10.58 10.58 0 0 1-8.192-12.117zm887.466-45.567h-33.621v-7.851a12.117 12.117 0 0 0-13.141-13.312 11.947 11.947 0 0 0-13.312 12.459v63.488a11.776 11.776 0 0 0 13.824 11.946c8.021 0 12.97-4.266 13.312-11.946v-20.139h-12.63v-17.067H972.8v47.787a25.6 25.6 0 0 1-17.067 20.65 71.34 71.34 0 0 1-51.2 3.073 31.06 31.06 0 0 1-23.04-30.891v-68.267a30.72 30.72 0 0 1 28.672-31.402 96.4 96.4 0 0 1 35.67 0 34.133 34.133 0 0 1 26.965 41.472zm-238.25-40.619h45.397c1.877 0 4.096 3.925 4.95 6.485 5.12 16.214 10.069 32.427 15.018 48.982 3.755 12.458 7.51 25.258 11.435 37.888a5.3 5.3 0 0 0 1.877 3.242v-95.914h31.403v125.61H799.06c-10.581-34.133-20.992-66.56-31.402-99.498h-1.024v99.669h-30.72zm-431.104 0H358.4c2.56 15.872 5.29 31.744 7.85 47.787 2.731 15.872 5.462 31.744 8.022 47.616h1.195c2.56-15.872 5.29-31.744 7.85-47.616 2.731-16.043 5.462-31.915 8.022-47.787h53.93c.854 42.325 1.878 85.333 3.072 127.147h-32.768V481.963h-2.218l-3.755 24.576c-1.707 8.362-3.243 17.066-4.779 24.917s-3.754 18.432-5.461 27.819-3.584 18.602-5.461 27.818a7.85 7.85 0 0 1-5.12 5.462H358.4c-3.755-20.31-7.68-40.448-11.605-60.587-3.414-17.067-6.656-34.133-9.899-51.2h-1.877v111.445h-34.134c0-27.818 1.024-55.637 1.707-83.626zm393.557 0H665.6v93.696c0 9.045-3.925 13.653-12.288 13.824s-13.483-4.267-13.483-14.165v-93.355h-34.133v99.67a27.65 27.65 0 0 0 17.067 26.111 69.29 69.29 0 0 0 58.197 0 32.6 32.6 0 0 0 17.067-34.133v-86.699a15 15 0 0 0 0-3.584zM275.627 592.043h-35.499c-2.901-20.139-5.973-40.107-9.045-60.075-2.56-17.067-5.291-34.133-7.851-52.053a3.76 3.76 0 0 1-1.877 0c-5.803 37.376-11.606 74.581-17.067 112.469h-35.84a1343 1343 0 0 1 9.216-51.2c1.707-9.387 3.584-18.773 5.461-27.99 2.731-13.994 5.462-27.989 7.851-41.983.853-5.12 2.73-6.656 8.021-6.656h51.2c9.046 42.666 17.067 84.65 25.43 127.488m239.957-41.814h-34.133c-2.39 23.04 4.608 36.694 23.722 42.667a72.88 72.88 0 0 0 47.446 0 28.5 28.5 0 0 0 20.821-18.603c6.827-23.893 2.219-38.4-16.213-49.834l-11.776-6.656c-3.926-2.048-7.851-4.096-11.606-6.486a126 126 0 0 1-12.288-7.85 11.605 11.605 0 0 1-4.437-15.36c2.901-6.144 8.704-6.144 14.507-5.291s8.021 6.144 8.362 11.776v6.144h31.403c2.219-19.968-4.95-32.768-21.504-37.205a75.1 75.1 0 0 0-43.35 0 31.23 31.23 0 0 0-24.917 32.085 32.43 32.43 0 0 0 17.067 30.379l16.043 9.386 16.042 9.558a26.6 26.6 0 0 1 9.558 9.386 22.02 22.02 0 0 1-1.024 14.848c-2.731 5.12-9.216 5.12-15.019 3.755a10.24 10.24 0 0 1-8.363-11.264z"/></svg>
