<svg xmlns="http://www.w3.org/2000/svg" class="icon" viewBox="0 0 5262 1024"><path d="m2847.853 590.851-616.83-577.53v971.045h183.522V446.151l616.83 577.356V52.62h-183.522zM1417.515 0h-7.565a504.32 504.32 0 0 0-504.353 504.353v7.894c0 275.61 236.143 511.753 511.754 511.753h7.565a504.32 504.32 0 0 0 504.353-504.358v-15.13A504.32 504.32 0 0 0 1424.916.16h-7.565zm0 839.985h-3.124a325.01 325.01 0 0 1-324.943-324.968v-3.084c0-183.686 144.217-328.067 328.067-328.067s328.068 144.217 328.068 328.067-144.197 328.052-328.068 328.052M590.851 511.933c-52.62-39.469-118.402-65.782-209.994-91.925-183.686-52.62-183.686-105.082-183.686-131.05 0-52.62 65.613-105.246 157.374-105.246 78.933 0 144.216 39.469 170.53 52.62l13.156 13.157 144.216-105.082-13.156-13.156S551.381.2 354.381.2c-91.926 0-183.687 26.312-249.3 78.768C39.306 131.554.006 209.994.006 288.927s39.47 157.373 105.082 209.83c52.62 39.468 117.909 65.781 209.829 92.089 183.686 52.456 183.686 104.753 183.686 131.05 0 52.456-65.612 104.753-157.373 104.753-78.769 0-144.217-39.47-170.53-52.456l-13.156-13.157L13.32 866.128l13.156 13.157s117.91 131.05 314.911 131.05c92.09 0 183.686-26.313 249.299-78.769 65.782-52.62 105.246-131.05 105.246-209.83 0-78.933-39.47-144.545-105.246-209.993zM3845.047.164h-7.586a504.32 504.32 0 0 0-504.353 504.353v7.565a512.324 512.324 0 0 0 511.754 511.754h7.565a504.32 504.32 0 0 0 504.352-504.353v-7.55A512.324 512.324 0 0 0 3845.026.18zm0 839.821h-3.125a325.01 325.01 0 0 1-324.943-324.968v-3.084c0-183.686 144.217-328.067 328.068-328.067s328.067 144.217 328.067 328.067S4015.741 840 3845.047 840zm826.664-341.244c52.62 39.469 118.402 65.782 209.994 92.09 183.686 52.456 183.686 104.752 183.686 131.05 0 52.456-65.613 104.752-157.374 104.752-78.933 0-144.216-39.469-170.53-52.456h-13.156l-144.216 105.108 13.156 13.156s117.91 131.05 314.91 131.05c91.926 0 183.687-26.313 249.3-78.769s105.086-131.05 105.086-209.983-39.47-157.373-105.082-209.834c-52.62-39.464-117.909-65.782-209.829-92.09-183.69-52.446-183.69-104.748-183.69-131.076 0-52.456 65.611-104.753 157.372-104.753 78.77 0 144.217 39.47 170.53 52.456l13.156 13.157 144.217-105.082-13.156-13.156s-117.91-131.05-314.911-131.05c-92.09 0-183.686 26.312-249.299 78.768-65.782 52.62-105.246 131.05-105.246 209.83-12.992 78.933 26.313 144.545 105.246 196.832z"/></svg>
