<svg xmlns="http://www.w3.org/2000/svg" class="icon" viewBox="0 0 3982 1024"><path d="m40.875 549.376 136.05-12.8c8.39 45.739 25.059 79.36 50.062 100.892 25.173 21.39 59.164 32 101.888 32 45.084 0 79.189-9.67 102.314-28.558 22.927-19.456 34.219-41.614 34.219-66.901 0-16.441-4.836-30.777-14.336-42.325-9.671-11.264-26.453-21.533-50.375-29.64-16.498-6.257-53.874-16.355-112.128-31.175-75.122-18.46-127.858-41.614-157.867-68.807-42.61-38.599-63.971-85.674-63.971-140.828 0-35.499 9.785-69.063 30.18-99.641 19.882-31.033 48.98-54.67 86.869-71.026 37.745-15.815 83-24.064 136.903-24.064 87.097 0 152.69 19.314 196.92 57.6 44.09 39.026 67.101 90.254 69.263 154.567l-140.857 4.75c-6.23-35.1-18.688-60.956-38.628-76.828-19.57-15.758-49.18-23.609-88.377-23.609-40.675 0-72.59 8.363-95.46 25.401-15.018 10.98-22.385 25.031-22.385 43.008 0 16.782 6.855 30.606 20.821 42.382 17.55 15.246 60.644 30.72 128.768 46.62 68.296 16.242 118.642 33.053 151.183 50.461 32.654 17.408 58.34 41.074 76.8 71.339 18.318 29.497 27.847 67.186 27.847 111.445 0 39.88-11.207 77.653-33.309 112.441-22.13 34.73-53.504 61.013-93.952 78.052-40.561 16.611-91.022 25.486-151.41 25.486-87.978 0-155.733-20.566-202.78-61.668-46.99-40.96-75.093-100.494-84.252-178.574"/><path d="M588.8 270.62h141.255l120.661 359.254L968.277 270.62h137.7L929.024 757.05l-32.398 88.775c-11.72 29.668-22.756 52.053-33.309 67.612a139.9 139.9 0 0 1-36.494 38.116 169.8 169.8 0 0 1-50.631 22.443 261.3 261.3 0 0 1-68.124 8.505c-25.515 0-50.717-3.044-75.52-8.505L621.51 868.949c20.708 4.38 39.51 6.543 56.178 6.543 30.777 0 53.675-9.103 68.38-27.222 14.877-18.602 26.198-42.07 34.077-70.286zm980.338 506.056h-133.006V519.083c0-54.244-2.788-89.259-8.62-105.415-5.859-15.986-14.847-28.445-27.96-37.32-12.828-8.789-28.615-13.283-46.677-13.283-23.382 0-44.118 6.485-62.777 19.2a94.7 94.7 0 0 0-38.144 49.863c-6.713 21.134-10.297 59.506-10.297 116.139v228.38h-132.722V270.62h122.937v74.127c44.231-56.036 99.783-83.712 166.77-83.712 29.753 0 56.718 5.404 81.237 15.616 24.548 10.922 43.236 24.12 55.552 40.817 12.459 16.527 21.22 35.186 26.197 55.922 4.921 20.594 7.481 50.887 7.481 89.714v313.572zm.768-258.361c0-44.857 11.065-87.467 32.967-129.309 21.817-41.415 52.85-73.216 93.042-95.26 40.163-22.016 85.02-32.683 134.485-32.683 76.686 0 139.264 24.747 188.018 74.468 48.981 49.72 73.529 112.554 73.529 188.33 0 76.544-24.775 139.663-74.127 190.123-49.322 50.176-111.616 75.662-186.51 75.662-46.25 0-90.396-10.723-132.58-31.602-42.069-20.992-74.012-51.655-95.829-92.33-21.93-40.278-32.995-89.43-32.995-147.4m136.135 6.741c0 50.489 11.833 89.116 35.868 115.342 23.894 26.994 53.277 40.448 88.377 40.448 35.072 0 64.427-13.454 88.32-40.448 23.552-26.226 35.385-65.28 35.385-115.968 0-49.977-11.833-88.234-35.385-114.688-23.893-26.453-53.248-40.192-88.32-40.192-35.1 0-64.483 13.739-88.377 40.192-24.035 26.454-35.868 65.11-35.868 115.314"/><path d="M2255.132 11.236v653.283c0 31.175 2.276 51.712 6.628 61.668 4.523 10.325 11.406 17.891 20.68 23.011 9.386 5.234 26.85 7.88 52.024 7.88v19.598h-241.408v-19.599c22.642 0 38.03-2.275 46.677-7.225 7.993-4.835 14.45-12.174 19.172-23.153 4.693-10.667 6.855-31.403 6.855-62.18V218.681c0-56.093-1.138-90.425-3.556-103.396-2.304-12.828-6.371-21.418-11.719-26.026a30.1 30.1 0 0 0-20.565-7.51c-9.045 0-20.594 3.357-34.475 8.818l-9.159-19.143 145.01-60.188zm318.948 257.792c74.894 0 134.798 28.359 180.167 85.077 38.4 48.27 57.572 103.794 57.572 166.485 0 44.288-10.411 88.89-31.659 133.831-21.22 45.113-50.347 79.218-87.723 102.116-37.233 23.011-78.421 34.503-124.046 34.503-74.638 0-133.746-29.61-177.493-88.604-37.006-49.721-55.552-105.672-55.552-167.851 0-45.284 11.235-89.856 33.621-134.286 22.642-45 52.139-77.625 88.86-99.527 36.552-20.992 75.35-31.744 116.253-31.744m-16.498 36.238c-19.086 0-38.144 4.95-57.372 16.498-19.2 11.434-34.816 30.89-46.65 58.908-11.832 28.558-17.805 64.654-17.805 109.028 0 71.594 14.535 132.693 42.837 185.03 28.615 51.457 66.133 77.626 112.697 77.626 35.043 0 63.659-14.62 86.016-42.952 22.755-28.558 34.105-77.653 34.105-147.57 0-87.38-18.859-155.647-56.462-205.852-25.544-34.105-57.97-50.716-97.366-50.716m362.297 290.787c-29.98-15.274-52.764-35.385-68.978-61.667a166.1 166.1 0 0 1-23.95-87.126c0-48.839 18.09-90.936 54.699-125.468 36.693-35.072 83.769-52.736 140.97-52.736 46.763 0 87.325 11.008 121.6 34.048h104.192c15.503 0 24.377.484 27.108 1.394 2.276 1.166 3.868 2.787 5.177 4.55 1.991 3.357 3.243 9.046 3.243 17.181 0 9.387-.968 16.299-2.788 19.542a9.07 9.07 0 0 1-5.632 4.181c-2.73 1.08-11.605 1.536-27.25 1.536h-64.227c20.337 25.941 30.407 59.08 30.407 99.328 0 45.767-17.806 85.276-52.68 117.788-35.071 32.655-82.09 49.124-140.828 49.124a248.4 248.4 0 0 1-74.78-11.548c-14.962 14.108-25.202 25.827-30.265 36.067-5.376 10.496-8.135 19.058-8.135 25.941 0 6.543 2.958 12.232 9.017 18.29 5.745 5.49 17.465 9.728 34.588 12.06 9.813 1.878 35.1 3.215 75.037 4.381 73.614 2.333 121.429 5.177 142.961 8.846 33.366 4.495 60.075 17.124 79.93 36.836 19.825 19.94 29.724 44.288 29.724 73.33 0 39.936-19.087 77.994-56.89 113.18-55.466 51.769-128.227 77.71-217.827 77.71-68.92 0-127.175-15.16-174.706-46.279-26.794-18.005-40.02-36.38-40.02-55.893 0-8.22 1.905-17.01 5.574-25.6 5.974-13.511 18.347-31.175 36.836-54.841 2.418-3.442 20.537-22.613 53.674-57.828-18.432-11.548-31.601-21.333-39.11-30.378a44.66 44.66 0 0 1-11.578-29.952c0-12.772 4.921-27.392 14.962-44.231 10.24-17.152 33.622-41.273 69.945-71.766m-4.409 180.623c-16.384 17.777-28.643 34.844-37.148 50.887-8.505 14.99-12.459 29.667-12.459 42.496 0 17.607 10.212 32.341 30.92 45.17 35.868 21.902 87.608 33.28 155.107 33.28 64.284 0 111.616-11.378 142.364-33.992 30.749-22.442 45.881-46.393 45.881-71.936 0-18.233-9.13-31.402-27.449-39.338-18.66-7.88-55.523-12.459-110.99-13.625-80.697-2.446-142.876-7.111-186.226-12.942m98.162-480.427c-26.51 0-48.299 11.008-66.304 32-17.72 20.992-26.539 52.508-26.539 96.114 0 56.177 12.06 99.697 36.239 130.787 18.63 23.438 41.927 35.158 70.286 35.158 27.079 0 49.465-10.326 66.702-30.607 17.436-20.309 26.112-51.968 26.112-95.146 0-56.89-12.06-100.95-36.636-132.921-18.404-23.21-41.558-35.385-69.86-35.385m285.61-12.857h230.514v19.684h-11.207c-16.27 0-28.359 3.811-36.465 10.467-8.022 7.197-11.947 15.844-11.947 25.998 0 14.28 5.689 33.48 17.778 58.14l120.177 249.316 109.938-272.355a114.4 114.4 0 0 0 9.16-44.231c0-6.343-1.537-11.065-3.812-14.223a28.2 28.2 0 0 0-13.511-9.272c-5.945-2.418-16.868-3.812-32.143-3.812v-19.712h159.432v19.684c-13.284 1.393-23.524 4.437-30.664 8.647-7.281 4.437-15.104 12.316-23.637 23.865-3.328 5.205-9.728 18.716-18.46 41.386l-199.709 491.264c-19.484 47.958-44.914 83.712-76.515 108.118-31.545 24.604-61.952 36.38-91.165 36.38-21.248 0-38.627-5.66-52.537-18.233-13.596-12.06-20.451-25.941-20.451-41.955 0-14.877 4.92-26.568 14.82-35.897 9.955-9.5 23.807-13.71 40.96-13.71 11.946 0 28.387 3.896 48.838 11.491 14.365 4.95 23.524 8.107 27.193 8.107 10.81 0 22.386-5.888 35.357-16.896 12.714-11.008 25.486-32.399 38.428-64l34.788-85.846-177.323-370.66c-5.404-11.235-14.108-24.917-25.77-41.585-9.046-12.43-16.413-20.935-22.159-25.543-8.249-5.348-21.646-10.581-39.907-14.99zm537.032-32.683v-98.645h43.32c8.818 0 15.39 1.138 20.11 3.214a20.76 20.76 0 0 1 10.81 8.875c2.787 4.835 4.039 9.728 4.039 14.876 0 7.225-2.133 13.085-6.855 17.693-4.267 4.892-11.264 8.106-20.708 9.386 3.556 1.65 6.116 3.442 7.709 4.836 3.811 3.413 7.452 7.737 10.695 12.8l17.18 26.965h-16.185l-13.056-20.366c-3.84-5.575-7.025-10.41-9.443-13.454a45 45 0 0 0-6.6-6.997c-1.763-1.167-3.782-1.622-5.774-2.276a29.8 29.8 0 0 0-7.452-.654h-14.848v43.747zm12.942-54.897h27.819c5.888 0 10.61-.37 13.88-2.048a12.5 12.5 0 0 0 7.624-5.718 15.4 15.4 0 0 0 2.73-9.017 14.42 14.42 0 0 0-5.12-11.32c-3.27-2.959-8.647-4.466-15.758-4.466h-31.175z"/></svg>
