<svg xmlns="http://www.w3.org/2000/svg" class="icon" viewBox="0 0 1024 1024"><path fill="#f45506" d="M512 51.2c254.515 0 460.8 206.285 460.8 460.8S766.515 972.8 512 972.8 51.2 766.515 51.2 512 257.485 51.2 512 51.2"/><path fill="#fff" d="M540.672 472.832c20.787-.307 35.584 4.403 43.776 12.902 8.192 8.807 13.517 19.815 9.42 37.12l-18.226 77.159h-54.784l15.77-64.87c6.911-29.594-.922-43.111-23.297-43.111-25.19.614-38.093 16.384-45.619 47.565l-14.49 60.416H398.95c5.07-21.095 10.087-42.803 15.412-64.256l15.104-62.976h54.17c-1.23 6.605-3.124 12.902-4.404 19.2 19.866-13.466 37.837-18.842 61.44-19.149M293.53 519.424c-4.762 4.71-6.912 8.192-6.912 10.086s3.481 2.816 10.393 2.816c11.674 0 22.375-.972 31.488-2.816 3.84-.819 7.629-1.843 11.315-3.123a64.5 64.5 0 0 0 21.76-11.673c5.99-5.018 8.807-9.728 8.807-14.49-.051-3.277-1.843-6.298-4.762-7.834-3.123-1.894-7.27-2.816-12.902-2.816-7.834 0-15.719 1.588-24.218 5.018-7.117 3.277-13.875 7.322-20.173 11.98-5.376 3.687-10.393 8.09-14.796 12.852m102.604 33.997c3.482 0 5.07.921 5.07 3.123 0 2.816-3.79 6.912-11.009 12.595-6.912 5.683-15.104 10.394-23.603 13.824a188 188 0 0 1-38.093 12.288h-.307c-14.49 3.123-27.7 4.71-39.987 4.71-16.077 0-29.287-2.815-39.015-8.499-9.779-5.99-14.49-13.21-14.49-22.681 0-16.077 8.5-32.41 26.113-49.408 15.36-14.592 33.433-26.061 53.197-33.69 5.068-1.894 9.779-3.789 14.49-5.069a150.3 150.3 0 0 1 46.591-7.884c11.315 0 20.122 2.201 27.085 5.99 5.325 3.123 8.192 6.912 8.5 11.93v1.894c-.308 6.912-5.326 14.182-15.105 22.323-9.728 7.578-21.709 14.183-36.505 19.507a198 198 0 0 1-30.516 8.807c-9.728 1.843-19.66 2.816-29.593 2.816h-12.903c-7.27 0-11.008 4.71-11.008 14.49 0 6.297 2.816 11.315 8.807 15.103 5.99 3.482 13.824 5.376 23.91 5.376 6.912 0 13.824-.307 20.787-1.587 18.893-3.174 37.786-10.393 56.679-22.067 4.608-2.662 8.09-3.891 10.905-3.891m342.221-130.048h45.62l-41.882 164.045c-3.738 14.182-30.823 12.595-48.794 12.595 1.229-6.605 3.43-13.517 5.018-20.173l20.736-81.869c-13.21-.307-27.7-1.587-40.909.973-7.834 1.587-15.411 4.096-22.323 8.806-9.78 6.912-15.104 17.306-17.664 31.181-2.509 14.183-.615 24.576 6.912 31.181 8.806 8.5 20.736 10.086 33.075 10.394 6.912 0 13.824-.615 20.173-.615-5.99 3.482-12.903 6.298-20.173 8.192a156 156 0 0 1-34.304 5.683c-6.605 0-21.709-1.894-30.822-9.472-9.78-7.526-15.104-17.92-15.77-31.18v-5.376c0-2.816.307-5.99.922-8.807 3.481-20.173 13.875-35.584 30.566-45.619 12.595-7.885 29.286-12.595 49.408-14.49 5.99-.665 12.595-.972 19.507-.972h26.727zm-413.389 40.294-81.868 21.402-28.314 115.558h-54.477l28.314-115.558H120.32l4.403-21.402zm518.861 118.067 13.261-53.196c-10.7.307-20.787 0-31.18 1.894-1.895.307-3.79.922-5.684 1.28-33.997 9.42-35.584 50.074 5.683 50.38h1.587zm32.41-106.393c18.893 3.789 27.085 10.393 27.392 27.392v2.201l-23.91 94.772-39.015.307h-14.797l-14.49.307c-35.89.307-52.223-14.797-53.503-32.102V563.2c1.587-19.507 20.787-40.602 52.582-46.285 5.018-.921 10.394-1.587 15.411-2.201 11.008-.922 22.323-.922 33.383-.922 5.683-22.682-13.824-25.19-33.383-22.016-4.71.922-9.42 1.894-13.517 3.123-12.595 3.482-22.988 9.472-27.699 10.394 4.71-10.087 6.605-16.384 20.48-22.989a105 105 0 0 1 20.736-6.605c16.538-3.635 33.69-3.737 50.33-.358"/></svg>
