<svg xmlns="http://www.w3.org/2000/svg" class="icon" viewBox="0 0 2657 1024"><path fill="#c60015" d="M704.12 97.794c0 55.417 45.637 97.795 97.794 97.795 55.417 0 97.795-45.638 97.795-97.795S854.07 0 801.914 0c-55.416 0-97.794 45.637-97.794 97.794"/><path fill="#1e1e1e" d="M2630.67 1013.802h-120.613v-39.117l-6.52-3.26c-3.26 3.26-3.26 6.52-6.52 13.039-32.597 35.858-81.494 48.897-127.132 32.598-19.559-6.52-35.858-26.078-39.118-45.637-3.26-13.04-3.26-26.079-3.26-39.118V371.619c0-22.819 3.26-45.638 13.04-65.196 16.299-45.638 52.157-61.937 97.794-45.638l39.118 19.56c13.04 9.778 22.819 19.558 39.118 35.857V71.716h114.093zm-120.613-374.878c0-81.496 0-159.731 3.26-241.227 0-29.338-16.3-48.897-35.858-65.196-16.299-13.04-29.338-9.78-35.858 13.04-3.26 19.558-6.52 39.117-6.52 61.936V870.37c0 13.04 3.26 29.339 6.52 42.378 3.26 6.52 9.78 13.04 19.559 16.3 19.559 6.519 52.157-22.82 52.157-45.638-3.26-78.236-3.26-162.991-3.26-244.486M0 84.755h365.1v120.613H251.005v811.694H120.613V202.11H0zm391.178 0H521.57v221.668c6.52-3.26 16.3-6.52 22.819-9.78 32.598-13.04 61.937-26.078 94.535-32.598 35.858-6.52 55.416 13.04 58.676 48.897v707.38H573.727V374.879c0-9.78-6.52-19.56-6.52-29.339-9.779 6.52-22.818 9.78-26.078 16.3-9.78 16.298-16.299 35.857-16.299 55.416v603.066H394.438V84.755zm821.473 935.567h-123.873V361.839c0-6.52-3.26-16.299-6.52-16.299-3.26-3.26-13.039 0-19.558 6.52-19.56 16.299-29.339 35.858-29.339 61.936v606.326H902.97V270.565h130.392c0 13.039 3.26 22.818 3.26 29.338l97.794-39.118h39.118c22.819 3.26 32.598 19.559 35.858 39.118 0 9.78 3.26 16.299 3.26 26.078zm958.385-55.417c-19.558 16.3-39.117 29.338-58.676 42.378-35.858 22.818-71.716 16.299-107.574 0-19.559-9.78-26.079-29.339-26.079-48.898V651.963c0-22.819 13.04-45.637 29.339-58.677 22.818-16.299 45.637-29.338 71.716-45.637 9.78-6.52 22.818-13.04 32.598-19.559 52.157-35.858 71.716-101.054 55.417-162.99-3.26-6.52-6.52-9.78-13.04-13.04-22.818-6.52-65.196 6.52-65.196 42.378V528.09h-117.353c0-45.637-3.26-91.275 0-136.912 3.26-65.197 71.716-127.133 143.432-130.393 26.078 0 55.416 0 81.495 3.26 35.858 6.52 65.196 26.078 74.976 61.936 9.78 29.339 19.559 58.677 19.559 91.275 3.26 195.59 3.26 394.438 3.26 590.027 0 13.039-3.26 16.299-16.3 16.299h-91.274c-13.04 0-19.56-3.26-16.3-16.3zm9.78-368.359c-45.637 19.559-84.755 42.378-88.015 91.275-6.52 74.976 0 149.951 0 221.667 0 6.52 9.78 19.56 19.559 19.56 26.078 6.519 71.716-29.34 71.716-55.418V616.105c-3.26-6.52-3.26-13.04-3.26-19.559m-427.036 0v420.516h-117.353V84.755h192.329c71.716 0 120.613 48.897 120.613 120.613v257.526c0 78.235-52.157 130.392-133.652 133.652zm0-433.555v303.162c0 48.898 0 48.898 48.897 45.638 29.339 0 39.118-13.04 39.118-42.378V215.148q0-39.118-39.118-48.897c-13.039-3.26-29.338-3.26-48.897-3.26m-384.658 857.331H1251.77V81.495h117.353zm91.275-769.316h127.133c-16.3 61.936-29.339 120.613-42.378 179.29s-29.338 114.093-42.377 172.77v26.078c29.338 127.133 55.416 254.266 84.755 378.139v9.78h-143.432c-6.52-35.859-13.04-71.717-19.559-104.315-16.3-88.015-32.598-179.29-48.897-267.305q-4.89-14.67 0-29.338c29.338-120.613 58.676-244.486 84.755-365.1M857.33 1020.322H739.978V264.045H857.33z"/></svg>
