<svg xmlns="http://www.w3.org/2000/svg" class="icon" viewBox="0 0 1024 1024"><path fill="#006eff" d="M512 51.2c254.515 0 460.8 206.285 460.8 460.8S766.515 972.8 512 972.8 51.2 766.515 51.2 512 257.485 51.2 512 51.2" style="--darkreader-inline-fill:var(--darkreader-background-006eff, #0061e0)"/><path fill="#fff" d="M198.963 418.611h96.768v276.173H392.5V418.662h94.26V373.71H198.962zm556.698 189.491a76.124 76.124 0 0 0 63.693-73.728v-70.81c0-51.865-24.32-89.855-61.338-89.855H522.24v320.973h94.31V608h139.213zm-139.213-189.49h77.875c14.848-.41 27.341 10.956 28.365 25.753v93.133c0 14.13-18.227 25.65-30.669 25.65H616.55z" style="--darkreader-inline-fill:var(--darkreader-background-ffffff, #1a1d1e)"/></svg>
