<svg xmlns="http://www.w3.org/2000/svg" class="icon" viewBox="0 0 1024 1024"><path fill="#888" d="M921.6 624H812.8c-35.2 0-60.8-32-60.8-70.4v-6.4c0-38.4 28.8-70.4 60.8-70.4h108.8c35.2 0 60.8 32 60.8 70.4v6.4c0 38.4-25.6 70.4-60.8 70.4m0-188.8H812.8c-57.6 0-102.4 51.2-102.4 112v6.4c0 64 44.8 112 102.4 112h108.8c57.6 0 102.4-51.2 102.4-112v-6.4c0-60.8-44.8-112-102.4-112M156.8 668.8c22.4 0 38.4-9.6 54.4-35.2l96-156.8c3.2-3.2 3.2-9.6 3.2-12.8 0-6.4-3.2-16-9.6-19.2-3.2-3.2-6.4-3.2-12.8-3.2s-12.8 3.2-16 9.6L176 608c-6.4 9.6-12.8 12.8-19.2 12.8s-12.8-3.2-19.2-12.8l-96-156.8c-3.2-6.4-9.6-9.6-16-9.6-3.2 0-9.6 0-12.8 3.2C3.2 448 0 454.4 0 464c0 3.2 0 9.6 3.2 12.8l96 156.8c16 22.4 35.2 35.2 57.6 35.2m400 0c22.4 0 38.4-9.6 54.4-35.2l96-156.8c3.2-3.2 3.2-9.6 3.2-12.8 0-6.4-3.2-16-9.6-19.2-3.2-3.2-6.4-3.2-12.8-3.2s-12.8 3.2-16 9.6L576 608c-6.4 9.6-12.8 12.8-19.2 12.8s-12.8-3.2-19.2-12.8l-96-156.8q-4.8-9.6-19.2-9.6c-3.2 0-9.6 0-12.8 3.2-6.4 3.2-9.6 12.8-9.6 19.2 0 3.2 0 9.6 3.2 12.8l96 156.8c19.2 22.4 38.4 35.2 57.6 35.2M384 384l-22.4-25.6c0-3.2-3.2-3.2-6.4-3.2s-3.2 0-6.4 3.2L329.6 384c-3.2 3.2-3.2 3.2-3.2 6.4s0 6.4 3.2 6.4l22.4 25.6c0 3.2 3.2 3.2 6.4 3.2s3.2 0 6.4-3.2l22.4-25.6c3.2-3.2 3.2-3.2 3.2-6.4-3.2-3.2-3.2-6.4-6.4-6.4m-25.6 54.4c-12.8 0-22.4 9.6-22.4 22.4v182.4c0 12.8 9.6 22.4 22.4 22.4s22.4-9.6 22.4-22.4V460.8c-3.2-12.8-12.8-22.4-22.4-22.4" style="--darkreader-inline-fill:var(--darkreader-background-888888, #646d71)"/></svg>
