<svg xmlns="http://www.w3.org/2000/svg" class="icon" viewBox="0 0 1024 1024"><path fill="#ff5e00" d="M512 51.2c254.515 0 460.8 206.285 460.8 460.8S766.515 972.8 512 972.8 51.2 766.515 51.2 512 257.485 51.2 512 51.2" style="--darkreader-inline-fill:var(--darkreader-background-ff5e00, #e05300)"/><path fill="#fff" d="M787.456 684.749c.051 2.099-1.587 3.891-3.686 3.993h-72.09a3.94 3.94 0 0 1-3.738-3.942V334.08c-.153-2.1 1.485-3.942 3.584-4.045h72.244c2.099 0 3.737 1.741 3.737 3.84V684.75zm-320.154 9.472a3.89 3.89 0 0 1-3.737 4.045h-72.141a3.94 3.94 0 0 1-3.738-3.943V483.277a3.78 3.78 0 0 1 3.482-4.045h72.346c2.15.051 3.788 1.843 3.737 3.994v.05z" style="--darkreader-inline-fill:var(--darkreader-background-ffffff, #1a1d1e)"/><path fill="#fff" d="M608.051 684.8V433.306c2.1-55.143-40.909-101.581-96.051-103.68H242.074c-2.1 0-3.738 1.74-3.738 3.84v351.027a3.85 3.85 0 0 0 3.686 4.045h72.141a3.94 3.94 0 0 0 3.738-3.943V409.498c-.103-2.1 1.587-3.892 3.686-3.994h155.187c30.208 1.126 53.76 26.522 52.736 56.73V684.85c-.102 2.1 1.588 3.891 3.687 3.994h71.168a4.06 4.06 0 0 0 3.686-4.045" style="--darkreader-inline-fill:var(--darkreader-background-ffffff, #1a1d1e)"/></svg>
