<svg xmlns="http://www.w3.org/2000/svg" class="icon" viewBox="0 0 1024 1024"><path fill-opacity=".81" d="M844.92 125.29a30.12 30.12 0 0 1 30.118 30.117l.06 271.059a30.12 30.12 0 0 1-30.117 30.118H122.157a30.12 30.12 0 0 1-30.117-30.118V155.407a30.12 30.12 0 0 1 30.117-30.118h722.824zm-30.117 60.235H152.215l.06 210.823h662.588V185.525zm-391.53 75.294v60.235H242.568V260.82zm421.708 256a30.12 30.12 0 0 1 30.117 30.117v271.06a30.12 30.12 0 0 1-30.117 30.117H122.157a30.12 30.12 0 0 1-30.117-30.118V546.936a30.12 30.12 0 0 1 30.117-30.117zm-30.118 60.235H152.275v210.824h662.588zm-391.53 75.294v60.236H242.629v-60.236z"/></svg>
