<svg xmlns="http://www.w3.org/2000/svg" class="icon" viewBox="0 0 1024 1024"><path d="M888 128H170.4c-39.6 0-71.9 32.2-72 71.7-.3 2.7-.4 5.5-.4 8.2v607.6c0 2.8.1 5.5.4 8.3.2 39.5 32.4 71.7 72 71.7h4.6c1 0 2 .1 3 .1h29c1 0 2 0 3-.1h678c39.7 0 72-32.3 72-72V200c0-39.7-32.3-72-72-72m-220 72v623.6H515.5V200zM192.5 447.1c-19.9 0-36-16.1-36-36s16.1-36 36-36 36 16.1 36 36-16.1 36-36 36m0-118.3c-19.9 0-36-16.1-36-36s16.1-36 36-36 36 16.1 36 36-16.1 36-36 36M286.6 200h157v623.6h-157c.3-2.6.4-5.3.4-7.9V208c0-2.7-.2-5.4-.4-8M888 823.6H740V200h148z"/><path d="M329.8 256.3h72v120h-72zm226 0h72v120h-72zm221.4 0h72v120h-72z"/></svg>
