<svg xmlns="http://www.w3.org/2000/svg" class="icon" viewBox="0 0 1025 1024"><path d="M726.016 85.267H299.583c-47.082 0-85.267 38.185-85.267 85.266v682.434c0 47.081 38.185 85.267 85.267 85.267h426.533c47.082 0 85.267-38.186 85.267-85.267V170.633c0-47.181-38.185-85.366-85.367-85.366M299.583 127.95h426.533c23.491 0 42.684 19.093 42.684 42.683v533.092H256.9V170.633c0-23.59 19.092-42.683 42.683-42.683m426.433 767.7H299.583c-23.49 0-42.683-19.092-42.683-42.683V746.408h511.8v106.659c0 23.49-19.093 42.583-42.684 42.583"/><path d="M470.116 810.383a42.683 42.683 0 1 0 85.367 0 42.683 42.683 0 1 0-85.367 0"/></svg>
