<svg xmlns="http://www.w3.org/2000/svg" class="icon" viewBox="0 0 1024 1024"><path fill="#5c5c66" d="M928 298.667H768v-160a53.393 53.393 0 0 0-53.333-53.334H309.333A53.393 53.393 0 0 0 256 138.667v160H96A53.393 53.393 0 0 0 42.667 352v362.667A53.393 53.393 0 0 0 96 768h160v160a53.393 53.393 0 0 0 53.333 53.333h405.334A53.393 53.393 0 0 0 768 928V768h160a53.393 53.393 0 0 0 53.333-53.333V352A53.393 53.393 0 0 0 928 298.667m-629.333-160A10.667 10.667 0 0 1 309.333 128h405.334a10.667 10.667 0 0 1 10.666 10.667v160H298.667zM725.333 928a10.667 10.667 0 0 1-10.666 10.667H309.333A10.667 10.667 0 0 1 298.667 928V640h426.666zm213.334-213.333A10.667 10.667 0 0 1 928 725.333H768V640h64a21.333 21.333 0 0 0 0-42.667H192A21.333 21.333 0 0 0 192 640h64v85.333H96a10.667 10.667 0 0 1-10.667-10.666V352A10.667 10.667 0 0 1 96 341.333h832A10.667 10.667 0 0 1 938.667 352zM896 405.333A21.333 21.333 0 1 1 874.667 384 21.333 21.333 0 0 1 896 405.333M682.667 704a21.333 21.333 0 0 1-21.334 21.333H362.667a21.333 21.333 0 0 1 0-42.666h298.666A21.333 21.333 0 0 1 682.667 704m0 128a21.333 21.333 0 0 1-21.334 21.333h-42.666a21.333 21.333 0 0 1 0-42.666h42.666A21.333 21.333 0 0 1 682.667 832m-128 0a21.333 21.333 0 0 1-21.334 21.333H362.667a21.333 21.333 0 0 1 0-42.666h170.666A21.333 21.333 0 0 1 554.667 832"/></svg>
