<svg xmlns="http://www.w3.org/2000/svg" class="icon" viewBox="0 0 1024 1024"><path d="M804.48 0H219.52a109.867 109.867 0 0 0-109.867 109.653v804.694A109.867 109.867 0 0 0 219.52 1024h584.96a109.867 109.867 0 0 0 109.867-109.653V109.653A109.867 109.867 0 0 0 804.48 0m36.693 914.347a36.693 36.693 0 0 1-36.693 36.48H219.52a36.693 36.693 0 0 1-36.693-36.48V109.653a36.693 36.693 0 0 1 36.693-36.48h584.96a36.693 36.693 0 0 1 36.693 36.48z"/><path d="M512 329.173A73.173 73.173 0 1 0 438.827 256 73.387 73.387 0 0 0 512 329.173m0 109.654a219.52 219.52 0 1 0 219.52 219.52A219.947 219.947 0 0 0 512 438.827m0 365.866a146.347 146.347 0 1 1 146.347-146.346A146.56 146.56 0 0 1 512 804.693"/><path d="M512 585.173a73.173 73.173 0 1 0 73.173 73.174A73.387 73.387 0 0 0 512 585.173"/></svg>
