<svg xmlns="http://www.w3.org/2000/svg" class="icon" viewBox="0 0 1024 1024"><path d="M753.664 69.632H270.336c-45.056 0-81.92 36.864-81.92 81.92v720.896c0 45.056 36.864 81.92 81.92 81.92h483.328c45.056 0 81.92-36.864 81.92-81.92V151.552c-4.096-45.056-36.864-81.92-81.92-81.92m40.96 802.816c0 20.48-16.384 40.96-40.96 40.96H270.336c-20.48 0-40.96-16.384-40.96-40.96V151.552c0-20.48 16.384-40.96 40.96-40.96h483.328c20.48 0 40.96 16.384 40.96 40.96z"/><path d="M491.52 172.032h40.96c12.288 0 20.48-8.192 20.48-20.48s-8.192-20.48-20.48-20.48h-40.96c-12.288 0-20.48 8.192-20.48 20.48s8.192 20.48 20.48 20.48M270.336 831.488h483.328V192.512H270.336zm40.96-602.112h401.408v561.152H311.296zM491.52 872.448a.5.5 0 1 0 40.96 0 .5.5 0 1 0-40.96 0"/></svg>
