<svg xmlns="http://www.w3.org/2000/svg" class="icon" viewBox="0 0 1024 1024"><path fill="#5a6375" d="M255.84 798.976a32 32 0 0 1-31.84-31.84V622.208a31.7 31.7 0 0 1 1.76-10.496l15.904-74.112c.224-2.464.544-4.832.896-7.104l38.016-246.4c5.888-38.112 19.52-60.096 37.376-60.096h422.592c17.472 0 30.816 21.472 36.608 58.88l37.408 242.496.8 5.12a136 136 0 0 1 .96 7.776l10.272 76.064a32 32 0 0 1 .96 7.776V767.04a32 32 0 0 1-31.808 31.808zM243.2 622.208v144.928a12.8 12.8 0 0 0 12.8 12.8h539.776a12.8 12.8 0 0 0 12.8-12.8V622.624l-.576-4.192a12.8 12.8 0 0 0-12.16-8.96h-540a12.8 12.8 0 0 0-11.744 7.712l-.896 4.768zm546.656-31.84a12.5 12.5 0 0 0 1.76-2.368 94.2 94.2 0 0 0 5.824-47.2l-1.76-12.8-37.28-242.208c-5.056-32.224-14.976-42.592-17.856-42.592H317.952c-3.04 0-13.408 10.848-18.56 44.16l-38.016 246.4a101 101 0 0 0 5.088 54.4 11.6 11.6 0 0 0 1.728 2.368zM297.248 731.584a9.6 9.6 0 1 1 0-19.04h228.544a9.6 9.6 0 1 1 0 19.04zm412-4.128a31.776 31.776 0 1 1 14.4 3.488 31.6 31.6 0 0 1-14.4-3.488m10.528-40.384a12.8 12.8 0 0 0-1.856 23.424 12.8 12.8 0 1 0 5.792-24.032 13.3 13.3 0 0 0-3.904.608zm-103.104 40.384a31.776 31.776 0 1 1 42.752-13.824 31.744 31.744 0 0 1-42.752 13.824m10.528-40.384a12.8 12.8 0 0 0-8.16 16 12.58 12.58 0 0 0 6.4 7.392 12.8 12.8 0 1 0 5.824-24.032 13.3 13.3 0 0 0-4.064.64m-329.952-5.984a9.6 9.6 0 0 1 0-19.2h228.544a9.6 9.6 0 0 1 0 19.2zM558.4 497.024l-48.576-140.992H544L577.888 464h1.312l35.2-108.096h32l-49.6 141.12zm-122.56 0V383.04h-36.96v-27.008h104.64v27.008h-36.992v113.984z"/></svg>
